<svg width="80" height="80" viewBox="0 0 80 80" fill="none" xmlns="http://www.w3.org/2000/svg">
<path d="M61.9621 3.71137C63.64 3.71137 65.2492 4.37791 66.4356 5.56437C67.6221 6.75082 68.2886 8.36 68.2886 10.0379V53.9621C68.2886 55.64 67.6221 57.2492 66.4356 58.4356C65.2492 59.6221 63.64 60.2886 61.9621 60.2886H18.0379C16.36 60.2886 14.7508 59.6221 13.5644 58.4356C12.3779 57.2492 11.7114 55.64 11.7114 53.9621V10.0379C11.7114 8.36 12.3779 6.75082 13.5644 5.56437C14.7508 4.37791 16.36 3.71137 18.0379 3.71137H61.9621ZM61.9621 1H18.0379C15.6409 1 13.3421 1.9522 11.6471 3.64714C9.9522 5.34207 9 7.6409 9 10.0379V53.9621C9 56.3591 9.9522 58.6579 11.6471 60.3529C13.3421 62.0478 15.6409 63 18.0379 63H61.9621C64.3591 63 66.6579 62.0478 68.3529 60.3529C70.0478 58.6579 71 56.3591 71 53.9621V10.0379C71 7.6409 70.0478 5.34207 68.3529 3.64714C66.6579 1.9522 64.3591 1 61.9621 1V1Z" fill="black"/>
<path d="M32.2726 55.1825C33.2873 55.1825 34.2922 54.9826 35.2297 54.5943C36.1673 54.2059 37.0191 53.6367 37.7367 52.9192C38.4542 52.2016 39.0234 51.3497 39.4118 50.4122C39.8001 49.4747 40 48.4698 40 47.4551V39.7277H32.2726C31.2578 39.7277 30.253 39.9275 29.3154 40.3159C28.3779 40.7042 27.526 41.2734 26.8085 41.991C26.0909 42.7085 25.5217 43.5604 25.1334 44.4979C24.745 45.4354 24.5452 46.4403 24.5452 47.4551C24.5452 48.4698 24.745 49.4747 25.1334 50.4122C25.5217 51.3497 26.0909 52.2016 26.8085 52.9192C27.526 53.6367 28.3779 54.2059 29.3154 54.5943C30.253 54.9826 31.2578 55.1825 32.2726 55.1825V55.1825Z" fill="black"/>
<path d="M24.5452 31.9997C24.5452 29.9503 25.3593 27.9848 26.8085 26.5356C28.2576 25.0865 30.2231 24.2723 32.2726 24.2723H40V39.7272H32.2726C30.2231 39.7272 28.2576 38.913 26.8085 37.4638C25.3593 36.0147 24.5452 34.0492 24.5452 31.9997V31.9997Z" fill="black"/>
<path d="M24.5452 16.5452C24.5452 14.4957 25.3593 12.5302 26.8085 11.0811C28.2576 9.63188 30.2231 8.81775 32.2726 8.81775H40V24.2726H32.2726C30.2231 24.2726 28.2576 23.4584 26.8085 22.0093C25.3593 20.5601 24.5452 18.5946 24.5452 16.5452V16.5452Z" fill="black"/>
<path d="M40 8.86269H47.7274C49.7768 8.86269 51.7423 9.67682 53.1915 11.126C54.6407 12.5752 55.4548 14.5407 55.4548 16.5901C55.4548 18.6395 54.6407 20.605 53.1915 22.0542C51.7423 23.5034 49.7768 24.3175 47.7274 24.3175H40V8.86269Z" fill="black"/>
<path d="M55.4548 31.9997C55.4548 33.5281 55.0016 35.0221 54.1525 36.2929C53.3034 37.5636 52.0966 38.5541 50.6846 39.1389C49.2726 39.7238 47.7188 39.8768 46.2199 39.5787C44.7209 39.2805 43.344 38.5445 42.2633 37.4638C41.1826 36.3831 40.4466 35.0063 40.1485 33.5073C39.8503 32.0083 40.0033 30.4546 40.5882 29.0426C41.1731 27.6306 42.1635 26.4237 43.4343 25.5746C44.7051 24.7255 46.1991 24.2723 47.7274 24.2723C49.7768 24.2723 51.7423 25.0865 53.1915 26.5356C54.6407 27.9848 55.4548 29.9503 55.4548 31.9997Z" fill="black"/>
<path d="M23.608 65.13V66.166H19.296V69.582H22.95V70.576H19.296V75H18.022V65.13H23.608ZM24.8937 65.06C24.8937 64.8267 24.973 64.64 25.1317 64.5C25.2904 64.3507 25.5004 64.276 25.7617 64.276C26.023 64.276 26.233 64.3507 26.3917 64.5C26.5504 64.64 26.6297 64.8267 26.6297 65.06C26.6297 65.2933 26.5504 65.4847 26.3917 65.634C26.233 65.774 26.023 65.844 25.7617 65.844C25.5004 65.844 25.2904 65.774 25.1317 65.634C24.973 65.4847 24.8937 65.2933 24.8937 65.06ZM26.3917 67.314V75H25.1177V67.314H26.3917ZM31.59 67.216C32.3366 67.216 32.9666 67.4027 33.48 67.776C34.0026 68.1493 34.3666 68.6487 34.572 69.274V67.314H35.846V75.126C35.846 75.8353 35.6966 76.4653 35.398 77.016C35.0993 77.5667 34.6793 77.996 34.138 78.304C33.5966 78.612 32.9666 78.766 32.248 78.766C31.212 78.766 30.3673 78.514 29.714 78.01C29.0606 77.5153 28.6453 76.8433 28.468 75.994H29.728C29.8773 76.5073 30.1573 76.9087 30.568 77.198C30.988 77.4967 31.5246 77.646 32.178 77.646C32.8686 77.646 33.438 77.422 33.886 76.974C34.3433 76.5353 34.572 75.9193 34.572 75.126V73.04C34.3666 73.6653 34.0026 74.1647 33.48 74.538C32.9666 74.9113 32.3366 75.098 31.59 75.098C30.9086 75.098 30.302 74.9393 29.77 74.622C29.238 74.3047 28.818 73.852 28.51 73.264C28.2113 72.6667 28.062 71.9667 28.062 71.164C28.062 70.3613 28.2113 69.6613 28.51 69.064C28.818 68.4667 29.238 68.0093 29.77 67.692C30.302 67.3747 30.9086 67.216 31.59 67.216ZM31.954 68.35C31.17 68.35 30.54 68.602 30.064 69.106C29.5973 69.6007 29.364 70.2867 29.364 71.164C29.364 72.0413 29.5973 72.732 30.064 73.236C30.54 73.7307 31.17 73.978 31.954 73.978C32.458 73.978 32.906 73.8613 33.298 73.628C33.6993 73.3947 34.012 73.068 34.236 72.648C34.46 72.2187 34.572 71.724 34.572 71.164C34.572 70.604 34.46 70.1093 34.236 69.68C34.012 69.2507 33.6993 68.924 33.298 68.7C32.906 68.4667 32.458 68.35 31.954 68.35ZM47.3236 67.188C48.2196 67.188 48.9382 67.4773 49.4796 68.056C50.0302 68.6253 50.3056 69.4513 50.3056 70.534V75H49.0316V70.646C49.0316 69.89 48.8449 69.3113 48.4716 68.91C48.1076 68.5087 47.6036 68.308 46.9596 68.308C46.2876 68.308 45.7462 68.532 45.3356 68.98C44.9342 69.4187 44.7336 70.0673 44.7336 70.926V75H43.4596V70.646C43.4596 69.89 43.2729 69.3113 42.8996 68.91C42.5262 68.5087 42.0222 68.308 41.3876 68.308C40.7062 68.308 40.1602 68.532 39.7496 68.98C39.3482 69.4187 39.1476 70.0673 39.1476 70.926V75H37.8736V67.314H39.1476V69.064C39.3342 68.4573 39.6656 67.9953 40.1416 67.678C40.6269 67.3513 41.1822 67.188 41.8076 67.188C42.4609 67.188 43.0256 67.356 43.5016 67.692C43.9869 68.0187 44.3322 68.504 44.5376 69.148C44.7522 68.5227 45.1116 68.042 45.6156 67.706C46.1196 67.3607 46.6889 67.188 47.3236 67.188ZM55.4337 67.216C56.1804 67.216 56.8104 67.4027 57.3237 67.776C57.8464 68.1493 58.2104 68.6487 58.4157 69.274V67.314H59.6897V75H58.4157V73.04C58.2104 73.6653 57.8464 74.1647 57.3237 74.538C56.8104 74.9113 56.1804 75.098 55.4337 75.098C54.7524 75.098 54.1457 74.9393 53.6137 74.622C53.0817 74.3047 52.6617 73.852 52.3537 73.264C52.0551 72.6667 51.9057 71.9667 51.9057 71.164C51.9057 70.3613 52.0551 69.6613 52.3537 69.064C52.6617 68.4667 53.0817 68.0093 53.6137 67.692C54.1457 67.3747 54.7524 67.216 55.4337 67.216ZM55.7977 68.35C55.0137 68.35 54.3837 68.602 53.9077 69.106C53.4411 69.6007 53.2077 70.2867 53.2077 71.164C53.2077 72.0413 53.4411 72.732 53.9077 73.236C54.3837 73.7307 55.0137 73.978 55.7977 73.978C56.3017 73.978 56.7497 73.8613 57.1417 73.628C57.5431 73.3947 57.8557 73.068 58.0797 72.648C58.3037 72.2187 58.4157 71.724 58.4157 71.164C58.4157 70.604 58.3037 70.1093 58.0797 69.68C57.8557 69.2507 57.5431 68.924 57.1417 68.7C56.7497 68.4667 56.3017 68.35 55.7977 68.35Z" fill="black"/>
</svg>
