<svg width="100" height="90" viewBox="0 0 100 90" fill="none" xmlns="http://www.w3.org/2000/svg">
<path d="M51.9733 52.28L46.1653 46.088L46.4053 28.76L51.8773 28.856L51.9733 52.28ZM19.6693 34.856L19.7173 26.12L51.8773 59.096L51.9733 67.88L19.6693 34.856ZM19.5733 65L19.7653 42.008L25.2373 47.576V65H19.5733ZM77.5086 32.312C79.1406 34.104 80.0046 36.312 80.1006 38.936C80.1646 41.272 79.7006 43.304 78.7086 45.032C77.7486 46.76 76.3246 48.104 74.4366 49.064C73.5406 49.512 72.2286 49.864 70.5006 50.12C68.7726 50.376 67.0606 50.456 65.3646 50.36C65.3326 50.36 65.3006 50.36 65.2686 50.36C65.2686 50.424 65.2686 50.808 65.2686 51.512C65.2366 53.176 65.2206 55.016 65.2206 57.032C65.2206 59.016 65.2206 60.84 65.2206 62.504C65.1886 63.24 65.1726 63.848 65.1726 64.328V64.856V65.048L59.7966 65V64.808C59.7966 64.68 59.7966 64.52 59.7966 64.328C59.7966 63.816 59.8126 63.208 59.8446 62.504C59.8446 60.84 59.8446 59 59.8446 56.984C59.8446 55.096 59.8606 52.488 59.8926 49.16C59.8606 47.848 59.8446 46.552 59.8446 45.272C61.9566 45.24 63.7966 45.24 65.3646 45.272C66.5486 45.304 67.5246 45.304 68.2926 45.272C69.0926 45.208 69.9406 45.064 70.8366 44.84C71.7326 44.584 72.4366 44.248 72.9486 43.832C73.4926 43.384 73.9406 42.776 74.2926 42.008C74.6446 41.208 74.8206 40.232 74.8206 39.08C74.8206 38.184 74.5806 37.368 74.1006 36.632C73.6526 35.864 73.0286 35.272 72.2286 34.856C71.0126 34.216 68.7246 33.88 65.3646 33.848L59.8446 33.8V28.808H67.9086C72.2286 28.872 75.4286 30.04 77.5086 32.312Z" fill="#4F05FF"/>
<path d="M91.8013 66.589L50 88.3096L8.19873 66.589L8.19873 23.411L50 1.69041L91.8013 23.411L91.8013 66.589Z" stroke="#070707" stroke-width="3"/>
</svg>
