<svg id="visual" viewBox="0 0 960 600" width="960" height="600" xmlns="http://www.w3.org/2000/svg" xmlns:xlink="http://www.w3.org/1999/xlink" version="1.1"><g stroke-width="1" stroke-linejoin="bevel"><path d="M441.4 338.9L470.4 245.1L351.1 271.1Z" fill="#e85467" stroke="#e85467"></path><path d="M470.4 245.1L406.4 154.4L351.1 271.1Z" fill="#cc2c68" stroke="#cc2c68"></path><path d="M351.1 271.1L314.1 362.9L441.4 338.9Z" fill="#d83c67" stroke="#d83c67"></path><path d="M406.4 154.4L318.1 181.4L351.1 271.1Z" fill="#ed5b67" stroke="#ed5b67"></path><path d="M351.1 271.1L228.8 326.9L314.1 362.9Z" fill="#f66a67" stroke="#f66a67"></path><path d="M564.6 334.9L542.6 215.1L470.4 245.1Z" fill="#fa7268" stroke="#fa7268"></path><path d="M470.4 245.1L542.6 215.1L406.4 154.4Z" fill="#de4467" stroke="#de4467"></path><path d="M535.6 444.6L564.6 334.9L441.4 338.9Z" fill="#d23467" stroke="#d23467"></path><path d="M441.4 338.9L564.6 334.9L470.4 245.1Z" fill="#d83c67" stroke="#d83c67"></path><path d="M318.1 181.4L253.8 231.1L351.1 271.1Z" fill="#d23467" stroke="#d23467"></path><path d="M321.1 440.6L459.4 446.6L441.4 338.9Z" fill="#cc2c68" stroke="#cc2c68"></path><path d="M677.2 407.6L588.9 318.9L564.6 334.9Z" fill="#e34c67" stroke="#e34c67"></path><path d="M564.6 334.9L588.9 318.9L542.6 215.1Z" fill="#f16367" stroke="#f16367"></path><path d="M406.4 154.4L324.1 125.7L318.1 181.4Z" fill="#d83c67" stroke="#d83c67"></path><path d="M318.1 181.4L231.8 200.4L253.8 231.1Z" fill="#f16367" stroke="#f16367"></path><path d="M588.9 188.4L560.6 173.4L542.6 215.1Z" fill="#f16367" stroke="#f16367"></path><path d="M542.6 215.1L560.6 173.4L406.4 154.4Z" fill="#e34c67" stroke="#e34c67"></path><path d="M406.4 154.4L409.4 75.7L324.1 125.7Z" fill="#f16367" stroke="#f16367"></path><path d="M286.8 419.6L321.1 440.6L314.1 362.9Z" fill="#d83c67" stroke="#d83c67"></path><path d="M314.1 362.9L321.1 440.6L441.4 338.9Z" fill="#d83c67" stroke="#d83c67"></path><path d="M228.8 326.9L286.8 419.6L314.1 362.9Z" fill="#e85467" stroke="#e85467"></path><path d="M253.8 231.1L228.8 326.9L351.1 271.1Z" fill="#f66a67" stroke="#f66a67"></path><path d="M623.9 251.1L588.9 188.4L542.6 215.1Z" fill="#de4467" stroke="#de4467"></path><path d="M259.8 91.7L231.8 200.4L318.1 181.4Z" fill="#f66a67" stroke="#f66a67"></path><path d="M253.8 231.1L197.5 302.9L228.8 326.9Z" fill="#c62368" stroke="#c62368"></path><path d="M495.6 65.7L406.4 154.4L560.6 173.4Z" fill="#ed5b67" stroke="#ed5b67"></path><path d="M495.6 65.7L409.4 75.7L406.4 154.4Z" fill="#c62368" stroke="#c62368"></path><path d="M459.4 446.6L535.6 444.6L441.4 338.9Z" fill="#ed5b67" stroke="#ed5b67"></path><path d="M588.9 318.9L623.9 251.1L542.6 215.1Z" fill="#f66a67" stroke="#f66a67"></path><path d="M683.2 378.9L623.9 251.1L588.9 318.9Z" fill="#e34c67" stroke="#e34c67"></path><path d="M201.5 216.1L197.5 302.9L253.8 231.1Z" fill="#fa7268" stroke="#fa7268"></path><path d="M228.8 326.9L213.5 403.6L286.8 419.6Z" fill="#cc2c68" stroke="#cc2c68"></path><path d="M321.1 440.6L441.4 498.3L459.4 446.6Z" fill="#c62368" stroke="#c62368"></path><path d="M459.4 446.6L441.4 498.3L535.6 444.6Z" fill="#ed5b67" stroke="#ed5b67"></path><path d="M725.2 156.4L573.9 124.7L588.9 188.4Z" fill="#c62368" stroke="#c62368"></path><path d="M588.9 188.4L573.9 124.7L560.6 173.4Z" fill="#c62368" stroke="#c62368"></path><path d="M172.5 144.4L201.5 216.1L231.8 200.4Z" fill="#fa7268" stroke="#fa7268"></path><path d="M231.8 200.4L201.5 216.1L253.8 231.1Z" fill="#ed5b67" stroke="#ed5b67"></path><path d="M573.9 124.7L495.6 65.7L560.6 173.4Z" fill="#ed5b67" stroke="#ed5b67"></path><path d="M197.5 302.9L213.5 403.6L228.8 326.9Z" fill="#cc2c68" stroke="#cc2c68"></path><path d="M290.8 550.3L369.1 533.3L321.1 440.6Z" fill="#f66a67" stroke="#f66a67"></path><path d="M321.1 440.6L369.1 533.3L441.4 498.3Z" fill="#de4467" stroke="#de4467"></path><path d="M290.8 0L259.8 91.7L324.1 125.7Z" fill="#fa7268" stroke="#fa7268"></path><path d="M324.1 125.7L259.8 91.7L318.1 181.4Z" fill="#ed5b67" stroke="#ed5b67"></path><path d="M367.1 0L324.1 125.7L409.4 75.7Z" fill="#d83c67" stroke="#d83c67"></path><path d="M290.8 550.3L321.1 440.6L286.8 419.6Z" fill="#e85467" stroke="#e85467"></path><path d="M591.9 553.3L625.9 451.6L535.6 444.6Z" fill="#e85467" stroke="#e85467"></path><path d="M535.6 444.6L625.9 451.6L564.6 334.9Z" fill="#e85467" stroke="#e85467"></path><path d="M489.6 549.3L535.6 444.6L441.4 498.3Z" fill="#d83c67" stroke="#d83c67"></path><path d="M259.8 91.7L172.5 144.4L231.8 200.4Z" fill="#e85467" stroke="#e85467"></path><path d="M201.5 216.1L113.3 259.1L197.5 302.9Z" fill="#f66a67" stroke="#f66a67"></path><path d="M458.4 600L489.6 549.3L441.4 498.3Z" fill="#d83c67" stroke="#d83c67"></path><path d="M471.4 0L367.1 0L409.4 75.7Z" fill="#cc2c68" stroke="#cc2c68"></path><path d="M259.8 91.7L191.5 67.7L172.5 144.4Z" fill="#de4467" stroke="#de4467"></path><path d="M495.6 65.7L471.4 0L409.4 75.7Z" fill="#cc2c68" stroke="#cc2c68"></path><path d="M530.6 0L471.4 0L495.6 65.7Z" fill="#cc2c68" stroke="#cc2c68"></path><path d="M677.2 407.6L683.2 378.9L588.9 318.9Z" fill="#c62368" stroke="#c62368"></path><path d="M623.9 251.1L725.2 156.4L588.9 188.4Z" fill="#f66a67" stroke="#f66a67"></path><path d="M683.2 378.9L700.2 251.1L623.9 251.1Z" fill="#e34c67" stroke="#e34c67"></path><path d="M573.9 124.7L530.6 0L495.6 65.7Z" fill="#c62368" stroke="#c62368"></path><path d="M625.9 451.6L677.2 407.6L564.6 334.9Z" fill="#d83c67" stroke="#d83c67"></path><path d="M199.5 544.3L290.8 550.3L286.8 419.6Z" fill="#f16367" stroke="#f16367"></path><path d="M369.1 533.3L458.4 600L441.4 498.3Z" fill="#e85467" stroke="#e85467"></path><path d="M649.9 0L530.6 0L573.9 124.7Z" fill="#e34c67" stroke="#e34c67"></path><path d="M172.5 144.4L113.3 259.1L201.5 216.1Z" fill="#e85467" stroke="#e85467"></path><path d="M82.3 342.9L127.3 439.6L213.5 403.6Z" fill="#cc2c68" stroke="#cc2c68"></path><path d="M213.5 403.6L199.5 544.3L286.8 419.6Z" fill="#cc2c68" stroke="#cc2c68"></path><path d="M367.1 0L290.8 0L324.1 125.7Z" fill="#cc2c68" stroke="#cc2c68"></path><path d="M213.5 0L191.5 67.7L259.8 91.7Z" fill="#cc2c68" stroke="#cc2c68"></path><path d="M172.5 144.4L66.3 133.4L113.3 259.1Z" fill="#ed5b67" stroke="#ed5b67"></path><path d="M371.1 600L458.4 600L369.1 533.3Z" fill="#ed5b67" stroke="#ed5b67"></path><path d="M489.6 549.3L591.9 553.3L535.6 444.6Z" fill="#de4467" stroke="#de4467"></path><path d="M625.9 451.6L726.2 528.3L677.2 407.6Z" fill="#d83c67" stroke="#d83c67"></path><path d="M290.8 550.3L371.1 600L369.1 533.3Z" fill="#f16367" stroke="#f16367"></path><path d="M549.6 600L591.9 553.3L489.6 549.3Z" fill="#f16367" stroke="#f16367"></path><path d="M82.3 342.9L213.5 403.6L197.5 302.9Z" fill="#f66a67" stroke="#f66a67"></path><path d="M795.5 232.1L725.2 156.4L700.2 251.1Z" fill="#e34c67" stroke="#e34c67"></path><path d="M700.2 251.1L725.2 156.4L623.9 251.1Z" fill="#cc2c68" stroke="#cc2c68"></path><path d="M113.3 259.1L82.3 342.9L197.5 302.9Z" fill="#fa7268" stroke="#fa7268"></path><path d="M127.3 439.6L199.5 544.3L213.5 403.6Z" fill="#e34c67" stroke="#e34c67"></path><path d="M290.8 550.3L253.8 600L371.1 600Z" fill="#e85467" stroke="#e85467"></path><path d="M290.8 0L213.5 0L259.8 91.7Z" fill="#de4467" stroke="#de4467"></path><path d="M93.3 44.7L66.3 133.4L172.5 144.4Z" fill="#f16367" stroke="#f16367"></path><path d="M458.4 600L549.6 600L489.6 549.3Z" fill="#ed5b67" stroke="#ed5b67"></path><path d="M725.2 156.4L684.2 45.7L573.9 124.7Z" fill="#ed5b67" stroke="#ed5b67"></path><path d="M199.5 544.3L253.8 600L290.8 550.3Z" fill="#de4467" stroke="#de4467"></path><path d="M684.2 45.7L649.9 0L573.9 124.7Z" fill="#de4467" stroke="#de4467"></path><path d="M549.6 600L589.9 600L591.9 553.3Z" fill="#f16367" stroke="#f16367"></path><path d="M591.9 553.3L726.2 528.3L625.9 451.6Z" fill="#de4467" stroke="#de4467"></path><path d="M93.3 44.7L172.5 144.4L191.5 67.7Z" fill="#e34c67" stroke="#e34c67"></path><path d="M113.3 259.1L0 306.9L82.3 342.9Z" fill="#e85467" stroke="#e85467"></path><path d="M816.5 345.9L795.5 232.1L700.2 251.1Z" fill="#c62368" stroke="#c62368"></path><path d="M823.5 91.7L712.2 0L684.2 45.7Z" fill="#cc2c68" stroke="#cc2c68"></path><path d="M816.5 345.9L700.2 251.1L683.2 378.9Z" fill="#cc2c68" stroke="#cc2c68"></path><path d="M816.5 345.9L683.2 378.9L814.5 403.6Z" fill="#c62368" stroke="#c62368"></path><path d="M84.3 600L194.5 600L199.5 544.3Z" fill="#e85467" stroke="#e85467"></path><path d="M199.5 544.3L194.5 600L253.8 600Z" fill="#de4467" stroke="#de4467"></path><path d="M82.3 513.3L199.5 544.3L127.3 439.6Z" fill="#de4467" stroke="#de4467"></path><path d="M732.2 600L726.2 528.3L591.9 553.3Z" fill="#e85467" stroke="#e85467"></path><path d="M213.5 0L93.3 44.7L191.5 67.7Z" fill="#e34c67" stroke="#e34c67"></path><path d="M855.7 182.4L807.5 191.4L795.5 232.1Z" fill="#c62368" stroke="#c62368"></path><path d="M795.5 232.1L807.5 191.4L725.2 156.4Z" fill="#f66a67" stroke="#f66a67"></path><path d="M684.2 45.7L712.2 0L649.9 0Z" fill="#e85467" stroke="#e85467"></path><path d="M814.5 403.6L683.2 378.9L677.2 407.6Z" fill="#f66a67" stroke="#f66a67"></path><path d="M0 429.6L82.3 513.3L127.3 439.6Z" fill="#d83c67" stroke="#d83c67"></path><path d="M0 429.6L127.3 439.6L82.3 342.9Z" fill="#f66a67" stroke="#f66a67"></path><path d="M823.5 91.7L684.2 45.7L725.2 156.4Z" fill="#c62368" stroke="#c62368"></path><path d="M732.2 600L744.5 527.3L726.2 528.3Z" fill="#c62368" stroke="#c62368"></path><path d="M726.2 528.3L744.5 527.3L677.2 407.6Z" fill="#d23467" stroke="#d23467"></path><path d="M0 232.1L113.3 259.1L66.3 133.4Z" fill="#cc2c68" stroke="#cc2c68"></path><path d="M0 232.1L0 306.9L113.3 259.1Z" fill="#f66a67" stroke="#f66a67"></path><path d="M744.5 527.3L814.5 403.6L677.2 407.6Z" fill="#e34c67" stroke="#e34c67"></path><path d="M0 169.4L0 232.1L66.3 133.4Z" fill="#e34c67" stroke="#e34c67"></path><path d="M0 124.7L0 169.4L66.3 133.4Z" fill="#e85467" stroke="#e85467"></path><path d="M0 306.9L0 429.6L82.3 342.9Z" fill="#e85467" stroke="#e85467"></path><path d="M93.3 44.7L0 124.7L66.3 133.4Z" fill="#e34c67" stroke="#e34c67"></path><path d="M855.7 182.4L823.5 91.7L807.5 191.4Z" fill="#d23467" stroke="#d23467"></path><path d="M807.5 191.4L823.5 91.7L725.2 156.4Z" fill="#d83c67" stroke="#d83c67"></path><path d="M589.9 600L732.2 600L591.9 553.3Z" fill="#de4467" stroke="#de4467"></path><path d="M744.5 527.3L840.7 535.3L814.5 403.6Z" fill="#e34c67" stroke="#e34c67"></path><path d="M889.7 264.1L855.7 182.4L795.5 232.1Z" fill="#ed5b67" stroke="#ed5b67"></path><path d="M867.7 307.9L795.5 232.1L816.5 345.9Z" fill="#fa7268" stroke="#fa7268"></path><path d="M893.7 419.6L816.5 345.9L814.5 403.6Z" fill="#d83c67" stroke="#d83c67"></path><path d="M893.7 419.6L867.7 307.9L816.5 345.9Z" fill="#d23467" stroke="#d23467"></path><path d="M0 517.3L84.3 600L82.3 513.3Z" fill="#e34c67" stroke="#e34c67"></path><path d="M82.3 513.3L84.3 600L199.5 544.3Z" fill="#d83c67" stroke="#d83c67"></path><path d="M213.5 0L47.3 0L93.3 44.7Z" fill="#cc2c68" stroke="#cc2c68"></path><path d="M93.3 44.7L47.3 0L0 124.7Z" fill="#d23467" stroke="#d23467"></path><path d="M867.7 307.9L889.7 264.1L795.5 232.1Z" fill="#ed5b67" stroke="#ed5b67"></path><path d="M834.7 0L823.5 0L823.5 91.7Z" fill="#ed5b67" stroke="#ed5b67"></path><path d="M960 369.9L889.7 264.1L867.7 307.9Z" fill="#d23467" stroke="#d23467"></path><path d="M0 429.6L0 517.3L82.3 513.3Z" fill="#de4467" stroke="#de4467"></path><path d="M823.5 91.7L823.5 0L712.2 0Z" fill="#fa7268" stroke="#fa7268"></path><path d="M834.7 0L823.5 91.7L908.7 91.7Z" fill="#f16367" stroke="#f16367"></path><path d="M811.5 600L840.7 535.3L744.5 527.3Z" fill="#f16367" stroke="#f16367"></path><path d="M840.7 535.3L893.7 419.6L814.5 403.6Z" fill="#f16367" stroke="#f16367"></path><path d="M47.3 0L0 0L0 124.7Z" fill="#fa7268" stroke="#fa7268"></path><path d="M908.7 91.7L823.5 91.7L855.7 182.4Z" fill="#e85467" stroke="#e85467"></path><path d="M732.2 600L811.5 600L744.5 527.3Z" fill="#f16367" stroke="#f16367"></path><path d="M960 491.3L960 399.6L893.7 419.6Z" fill="#d83c67" stroke="#d83c67"></path><path d="M0 517.3L0 600L84.3 600Z" fill="#ed5b67" stroke="#ed5b67"></path><path d="M960 219.1L855.7 182.4L889.7 264.1Z" fill="#e34c67" stroke="#e34c67"></path><path d="M960 136.4L908.7 91.7L855.7 182.4Z" fill="#f16367" stroke="#f16367"></path><path d="M811.5 600L850.7 600L840.7 535.3Z" fill="#de4467" stroke="#de4467"></path><path d="M960 369.9L960 219.1L889.7 264.1Z" fill="#e34c67" stroke="#e34c67"></path><path d="M960 369.9L867.7 307.9L893.7 419.6Z" fill="#d23467" stroke="#d23467"></path><path d="M960 399.6L960 369.9L893.7 419.6Z" fill="#e85467" stroke="#e85467"></path><path d="M960 491.3L893.7 419.6L840.7 535.3Z" fill="#d23467" stroke="#d23467"></path><path d="M960 219.1L960 136.4L855.7 182.4Z" fill="#c62368" stroke="#c62368"></path><path d="M908.7 91.7L960 0L834.7 0Z" fill="#d83c67" stroke="#d83c67"></path><path d="M960 600L960 491.3L840.7 535.3Z" fill="#c62368" stroke="#c62368"></path><path d="M960 136.4L960 63.7L908.7 91.7Z" fill="#f16367" stroke="#f16367"></path><path d="M960 63.7L960 0L908.7 91.7Z" fill="#ed5b67" stroke="#ed5b67"></path><path d="M850.7 600L960 600L840.7 535.3Z" fill="#cc2c68" stroke="#cc2c68"></path></g></svg>