<svg width="654" height="630" viewBox="0 0 654 630" fill="none" xmlns="http://www.w3.org/2000/svg">
<path d="M494.444 36.9999C543.409 72.1539 574.378 131.581 602.836 192.682C631.294 253.364 657.241 315.721 653.474 377.24C650.126 439.178 617.065 499.861 568.937 538.363C520.81 576.865 458.453 593.187 396.934 608.671C335.833 623.737 275.987 637.966 224.093 623.319C172.199 608.671 128.675 565.147 94.777 517.856C60.8785 470.566 36.6055 419.09 18.61 360.919C0.614506 302.747 -11.1035 237.461 16.099 194.774C43.3015 152.506 109.843 132.836 165.503 100.612C221.164 68.8059 266.78 24.4449 322.859 7.70492C378.938 -9.03508 445.898 1.84592 494.444 36.9999Z" fill="#6100FF"/>
</svg>
