<svg id="visual" viewBox="0 0 960 600" width="960" height="600" xmlns="http://www.w3.org/2000/svg" xmlns:xlink="http://www.w3.org/1999/xlink" version="1.1"><rect x="0" y="0" width="960" height="600" fill="#002233"></rect><path d="M0 155L22.8 146.5C45.7 138 91.3 121 137 118.8C182.7 116.7 228.3 129.3 274 148.2C319.7 167 365.3 192 411.2 200C457 208 503 199 548.8 177.7C594.7 156.3 640.3 122.7 686 115.2C731.7 107.7 777.3 126.3 823 128.3C868.7 130.3 914.3 115.7 937.2 108.3L960 101L960 0L937.2 0C914.3 0 868.7 0 823 0C777.3 0 731.7 0 686 0C640.3 0 594.7 0 548.8 0C503 0 457 0 411.2 0C365.3 0 319.7 0 274 0C228.3 0 182.7 0 137 0C91.3 0 45.7 0 22.8 0L0 0Z" fill="#EF5F67" stroke-linecap="round" stroke-linejoin="miter"></path></svg>