<svg id="visual" viewBox="0 0 960 600" width="960" height="600" xmlns="http://www.w3.org/2000/svg" xmlns:xlink="http://www.w3.org/1999/xlink" version="1.1"><path d="M0 189L22.8 194.5C45.7 200 91.3 211 137 219.7C182.7 228.3 228.3 234.7 274 231.2C319.7 227.7 365.3 214.3 411.2 200.7C457 187 503 173 548.8 176.7C594.7 180.3 640.3 201.7 686 206.8C731.7 212 777.3 201 823 199.5C868.7 198 914.3 206 937.2 210L960 214L960 0L937.2 0C914.3 0 868.7 0 823 0C777.3 0 731.7 0 686 0C640.3 0 594.7 0 548.8 0C503 0 457 0 411.2 0C365.3 0 319.7 0 274 0C228.3 0 182.7 0 137 0C91.3 0 45.7 0 22.8 0L0 0Z" fill="#fa7268"></path><path d="M0 174L22.8 171.2C45.7 168.3 91.3 162.7 137 163.7C182.7 164.7 228.3 172.3 274 179.7C319.7 187 365.3 194 411.2 191.7C457 189.3 503 177.7 548.8 165.5C594.7 153.3 640.3 140.7 686 143.8C731.7 147 777.3 166 823 175.8C868.7 185.7 914.3 186.3 937.2 186.7L960 187L960 0L937.2 0C914.3 0 868.7 0 823 0C777.3 0 731.7 0 686 0C640.3 0 594.7 0 548.8 0C503 0 457 0 411.2 0C365.3 0 319.7 0 274 0C228.3 0 182.7 0 137 0C91.3 0 45.7 0 22.8 0L0 0Z" fill="#ef5f67"></path><path d="M0 126L22.8 128.8C45.7 131.7 91.3 137.3 137 139.8C182.7 142.3 228.3 141.7 274 143.7C319.7 145.7 365.3 150.3 411.2 148.2C457 146 503 137 548.8 135.8C594.7 134.7 640.3 141.3 686 141C731.7 140.7 777.3 133.3 823 126C868.7 118.7 914.3 111.3 937.2 107.7L960 104L960 0L937.2 0C914.3 0 868.7 0 823 0C777.3 0 731.7 0 686 0C640.3 0 594.7 0 548.8 0C503 0 457 0 411.2 0C365.3 0 319.7 0 274 0C228.3 0 182.7 0 137 0C91.3 0 45.7 0 22.8 0L0 0Z" fill="#e34c67"></path><path d="M0 57L22.8 58.2C45.7 59.3 91.3 61.7 137 61.8C182.7 62 228.3 60 274 66C319.7 72 365.3 86 411.2 91.7C457 97.3 503 94.7 548.8 92.8C594.7 91 640.3 90 686 89C731.7 88 777.3 87 823 86.2C868.7 85.3 914.3 84.7 937.2 84.3L960 84L960 0L937.2 0C914.3 0 868.7 0 823 0C777.3 0 731.7 0 686 0C640.3 0 594.7 0 548.8 0C503 0 457 0 411.2 0C365.3 0 319.7 0 274 0C228.3 0 182.7 0 137 0C91.3 0 45.7 0 22.8 0L0 0Z" fill="#d53867"></path><path d="M0 32L22.8 36.5C45.7 41 91.3 50 137 51.3C182.7 52.7 228.3 46.3 274 46.2C319.7 46 365.3 52 411.2 50C457 48 503 38 548.8 33.8C594.7 29.7 640.3 31.3 686 31.3C731.7 31.3 777.3 29.7 823 33.3C868.7 37 914.3 46 937.2 50.5L960 55L960 0L937.2 0C914.3 0 868.7 0 823 0C777.3 0 731.7 0 686 0C640.3 0 594.7 0 548.8 0C503 0 457 0 411.2 0C365.3 0 319.7 0 274 0C228.3 0 182.7 0 137 0C91.3 0 45.7 0 22.8 0L0 0Z" fill="#c62368"></path></svg>