<svg id="visual" viewBox="0 0 960 600" width="960" height="600" xmlns="http://www.w3.org/2000/svg" xmlns:xlink="http://www.w3.org/1999/xlink" version="1.1"><path d="M0 408L22.8 411.5C45.7 415 91.3 422 137 415.2C182.7 408.3 228.3 387.7 274 377.5C319.7 367.3 365.3 367.7 411.2 379.7C457 391.7 503 415.3 548.8 420.3C594.7 425.3 640.3 411.7 686 399.5C731.7 387.3 777.3 376.7 823 372C868.7 367.3 914.3 368.7 937.2 369.3L960 370L960 601L937.2 601C914.3 601 868.7 601 823 601C777.3 601 731.7 601 686 601C640.3 601 594.7 601 548.8 601C503 601 457 601 411.2 601C365.3 601 319.7 601 274 601C228.3 601 182.7 601 137 601C91.3 601 45.7 601 22.8 601L0 601Z" fill="#fa7268"></path><path d="M0 416L22.8 420.2C45.7 424.3 91.3 432.7 137 430.5C182.7 428.3 228.3 415.7 274 415.3C319.7 415 365.3 427 411.2 436.8C457 446.7 503 454.3 548.8 458.3C594.7 462.3 640.3 462.7 686 452.8C731.7 443 777.3 423 823 422.5C868.7 422 914.3 441 937.2 450.5L960 460L960 601L937.2 601C914.3 601 868.7 601 823 601C777.3 601 731.7 601 686 601C640.3 601 594.7 601 548.8 601C503 601 457 601 411.2 601C365.3 601 319.7 601 274 601C228.3 601 182.7 601 137 601C91.3 601 45.7 601 22.8 601L0 601Z" fill="#ef5f67"></path><path d="M0 484L22.8 487.3C45.7 490.7 91.3 497.3 137 496.8C182.7 496.3 228.3 488.7 274 483.2C319.7 477.7 365.3 474.3 411.2 471C457 467.7 503 464.3 548.8 468.2C594.7 472 640.3 483 686 484.3C731.7 485.7 777.3 477.3 823 476.2C868.7 475 914.3 481 937.2 484L960 487L960 601L937.2 601C914.3 601 868.7 601 823 601C777.3 601 731.7 601 686 601C640.3 601 594.7 601 548.8 601C503 601 457 601 411.2 601C365.3 601 319.7 601 274 601C228.3 601 182.7 601 137 601C91.3 601 45.7 601 22.8 601L0 601Z" fill="#e34c67"></path><path d="M0 508L22.8 506.8C45.7 505.7 91.3 503.3 137 503.7C182.7 504 228.3 507 274 509C319.7 511 365.3 512 411.2 510.8C457 509.7 503 506.3 548.8 502.8C594.7 499.3 640.3 495.7 686 493.2C731.7 490.7 777.3 489.3 823 496.7C868.7 504 914.3 520 937.2 528L960 536L960 601L937.2 601C914.3 601 868.7 601 823 601C777.3 601 731.7 601 686 601C640.3 601 594.7 601 548.8 601C503 601 457 601 411.2 601C365.3 601 319.7 601 274 601C228.3 601 182.7 601 137 601C91.3 601 45.7 601 22.8 601L0 601Z" fill="#d53867"></path><path d="M0 555L22.8 556C45.7 557 91.3 559 137 554.5C182.7 550 228.3 539 274 536.5C319.7 534 365.3 540 411.2 539.3C457 538.7 503 531.3 548.8 535.7C594.7 540 640.3 556 686 562.8C731.7 569.7 777.3 567.3 823 566.2C868.7 565 914.3 565 937.2 565L960 565L960 601L937.2 601C914.3 601 868.7 601 823 601C777.3 601 731.7 601 686 601C640.3 601 594.7 601 548.8 601C503 601 457 601 411.2 601C365.3 601 319.7 601 274 601C228.3 601 182.7 601 137 601C91.3 601 45.7 601 22.8 601L0 601Z" fill="#c62368"></path></svg>