<svg width="190" height="171" viewBox="0 0 190 171" fill="none" xmlns="http://www.w3.org/2000/svg">
<path opacity="0.23" d="M85.068 170.794C131.671 170.794 169.45 136.672 169.45 94.5798C169.45 52.4877 131.671 18.3654 85.068 18.3654C38.4653 18.3654 0.686279 52.4877 0.686279 94.5798C0.686279 136.672 38.4653 170.794 85.068 170.794Z" fill="#68E1FD"/>
<path d="M189.835 81.9504C189.857 99.6444 184.098 116.861 173.434 130.981L173.261 131.22C161.576 146.621 144.796 157.366 125.919 161.537C107.042 165.708 87.297 163.033 70.2102 153.99C53.1235 144.947 39.8078 130.124 32.6414 112.169C25.475 94.2135 24.9246 74.2956 31.0884 55.9722C37.2522 37.6487 49.7288 22.113 66.29 12.1396C82.8512 2.16624 102.418 -1.59527 121.497 1.52688C140.576 4.64902 157.923 14.4515 170.441 29.1836C182.96 43.9157 189.833 62.6181 189.835 81.9504Z" fill="#68E1FD"/>
<path d="M82.1066 41.8578C77.6312 43.7037 72.691 44.142 68.0961 45.6559C63.5012 47.1698 58.893 50.2243 57.7111 54.952C57.1002 57.3291 57.4189 59.9718 56.2502 62.1232C54.6965 65.0183 51.0577 66.1073 48.8532 68.4977C44.6567 73.1191 47.419 81.0474 52.5451 84.6197C57.6712 88.1921 64.2183 88.7365 70.3537 89.7857C72.0327 89.9196 73.6331 90.5533 74.9486 91.605C78.521 95.018 74.5635 101.193 76.0774 105.894C76.9274 108.55 79.4373 110.37 80.5794 112.92C82.7706 117.78 79.4506 123.145 77.2594 128.006C73.3071 136.873 72.95 146.928 76.2634 156.053C76.1106 156.273 75.942 156.482 75.7587 156.678C67.0191 152.842 59.0152 147.512 52.1069 140.927C45.3738 131.485 40.0485 121.193 40.6063 109.878C40.9117 103.743 42.9569 97.8201 43.342 91.7113C43.9794 81.791 40.3938 71.0209 45.2543 62.3623C47.9104 57.5682 53.0896 52.3092 50.1945 47.6612C45.0817 48.4049 39.5704 48.5244 34.8826 46.7449C40.635 34.7613 49.23 24.3658 59.9189 16.4637C70.6078 8.56159 83.0665 3.3925 96.2101 1.40662C101.257 15.8288 97.2459 35.4834 82.1066 41.8578Z" fill="url(#paint0_linear)"/>
<path d="M189.835 81.9505C189.84 87.1065 189.356 92.2513 188.387 97.3155C186.222 99.0763 184.193 100.999 182.318 103.066C175.877 110.609 174.483 121.074 173.434 130.954C173.434 131.167 173.434 131.379 173.367 131.578C173.367 131.445 173.367 131.326 173.261 131.193C172.749 128.656 171.643 126.276 170.034 124.248C168.201 122.269 164.948 121.286 162.717 122.84C161.654 120.184 160.588 117.55 159.516 114.938C152.876 114.938 146.024 114.938 139.782 112.588C133.54 110.237 128.374 105.735 123.381 101.339C124.037 93.7226 123.894 86.0582 122.956 78.4711C142.353 76.366 160.294 67.1895 173.354 52.6944C161.674 52.1121 150.094 55.0998 140.154 61.2601C138.029 62.5881 135.878 64.0755 133.394 64.2879C131.821 64.3273 130.251 64.112 128.746 63.6505L112.691 59.5735C110.685 49.2416 117.843 38.8698 127.046 33.757C133.952 29.9323 142.332 30.676 148.959 27.3294C153.5 25.0453 154.828 21.0479 158.799 18.113H158.879C168.525 25.7251 176.321 35.4233 181.682 46.4795C187.044 57.5358 189.831 69.6629 189.835 81.9505Z" fill="url(#paint1_linear)"/>
<defs>
<linearGradient id="paint0_linear" x1="7764.46" y1="40392" x2="-108.158" y2="-16493.2" gradientUnits="userSpaceOnUse">
<stop offset="0.01"/>
<stop offset="0.13" stop-opacity="0.69"/>
<stop offset="0.25" stop-opacity="0.32"/>
<stop offset="1" stop-opacity="0"/>
</linearGradient>
<linearGradient id="paint1_linear" x1="14349.9" y1="29137.8" x2="10866.7" y2="-12940.5" gradientUnits="userSpaceOnUse">
<stop offset="0.01"/>
<stop offset="0.13" stop-opacity="0.69"/>
<stop offset="0.25" stop-opacity="0.32"/>
<stop offset="1" stop-opacity="0"/>
</linearGradient>
</defs>
</svg>
