<svg width="87" height="44" viewBox="0 0 87 44" fill="none" xmlns="http://www.w3.org/2000/svg">
<path d="M86.0153 34.7794C86.0165 36.0068 85.7675 37.2216 85.2834 38.3496C84.7994 39.4775 84.0904 40.495 83.1999 41.3397C81.6652 42.7938 79.6874 43.6915 77.5825 43.8895C77.1887 43.9097 76.7943 43.9097 76.4005 43.8895L10.4383 42.5615C7.90592 42.5342 5.4842 41.5196 3.68849 39.7339C1.89278 37.9481 0.86486 35.532 0.823491 32.9998C0.822285 31.7724 1.07132 30.5576 1.55538 29.4296C2.03945 28.3017 2.74838 27.2842 3.63888 26.4395C4.54181 25.5713 5.60718 24.8898 6.77395 24.434C7.94071 23.9782 9.18594 23.7572 10.4383 23.7834H12.6826C12.2121 22.1518 11.9752 20.4617 11.9788 18.7636C11.9743 16.3431 12.4644 13.9473 13.4189 11.7231C14.3735 9.4988 15.7724 7.49301 17.5299 5.82874C19.0783 4.34714 20.8767 3.15121 22.8419 2.29624C25.386 1.18613 28.1411 0.642375 30.9162 0.702633L36.5204 0.82215C39.9852 0.88662 43.3702 1.87285 46.3275 3.6794C49.2847 5.48595 51.7074 8.04761 53.3463 11.1009C54.9665 10.3448 56.7378 9.96782 58.5255 9.9987H59.973C62.9742 10.0363 65.8426 11.2415 67.9699 13.3589C70.0971 15.4762 71.3158 18.339 71.3674 21.3399V21.8844C71.3727 22.9142 71.225 23.9391 70.9291 24.9255L76.3872 25.045C78.9516 25.0696 81.4024 26.1064 83.2057 27.9296C85.0091 29.7529 86.0189 32.2149 86.0153 34.7794Z" fill="white"/>
<path d="M77.5825 43.8895C77.1887 43.9097 76.7943 43.9097 76.4005 43.8895L10.4383 42.5615C7.90592 42.5342 5.4842 41.5196 3.68849 39.7339C1.89278 37.9481 0.86486 35.532 0.823491 32.9998C0.822285 31.7724 1.07132 30.5576 1.55538 29.4296C2.03945 28.3017 2.74838 27.2842 3.63888 26.4395C1.04926 42.7209 18.0478 40.3968 18.0478 40.3968H60.9026L77.5825 43.8895Z" fill="url(#paint0_linear)"/>
<path d="M17.4635 25.7489L12.6826 23.9295C12.2122 22.2979 11.9752 20.6078 11.9788 18.9096C11.9743 16.4892 12.4644 14.0934 13.4189 11.8691C14.3735 9.64488 15.7724 7.63909 17.5299 5.97482C19.0783 4.49322 20.8767 3.29729 22.8419 2.44232C9.60166 13.8101 17.4635 25.7489 17.4635 25.7489Z" fill="url(#paint1_linear)"/>
<defs>
<linearGradient id="paint0_linear" x1="2065.64" y1="2351.4" x2="2987.92" y2="466.572" gradientUnits="userSpaceOnUse">
<stop offset="0.01"/>
<stop offset="0.13" stop-opacity="0.69"/>
<stop offset="0.25" stop-opacity="0.32"/>
<stop offset="1" stop-opacity="0"/>
</linearGradient>
<linearGradient id="paint1_linear" x1="304.198" y1="3105.01" x2="949.546" y2="2965.14" gradientUnits="userSpaceOnUse">
<stop offset="0.01"/>
<stop offset="0.13" stop-opacity="0.69"/>
<stop offset="0.25" stop-opacity="0.32"/>
<stop offset="1" stop-opacity="0"/>
</linearGradient>
</defs>
</svg>
