<svg width="87" height="44" viewBox="0 0 87 44" fill="none" xmlns="http://www.w3.org/2000/svg">
<path d="M86.011 34.5954C86.0121 35.8241 85.7617 37.0399 85.2752 38.1682C84.7888 39.2964 84.0765 40.3131 83.1824 41.1558C81.6424 42.6099 79.6604 43.5074 77.5516 43.7056C77.1584 43.7393 76.7629 43.7393 76.3697 43.7056L10.4207 42.3776C7.91002 42.344 5.50998 41.3389 3.7246 39.5733C1.93921 37.8077 0.90738 35.419 0.845776 32.9089C0.831956 31.669 1.07361 30.4396 1.5557 29.2972C2.03779 28.1548 2.74998 27.1239 3.64788 26.2688C5.48503 24.5282 7.93005 23.5749 10.4606 23.6128H12.6916C12.2275 21.9843 11.9906 20.2995 11.9878 18.6062C11.9841 16.1859 12.4745 13.7903 13.429 11.5662C14.3835 9.34201 15.782 7.33613 17.5389 5.67138C19.0877 4.18678 20.8858 2.98652 22.8509 2.12559C25.3947 1.01426 28.15 0.470444 30.9252 0.531979L36.5294 0.6515C39.9942 0.71548 43.3791 1.7031 46.3346 3.51237C49.2901 5.32165 51.7092 7.887 53.342 10.9436C54.9585 10.1764 56.7324 9.79892 58.5212 9.84133H59.9688C62.971 9.87201 65.8428 11.0729 67.9733 13.1884C70.1037 15.304 71.3246 18.1673 71.3764 21.1693V21.7137C71.3754 22.7484 71.2233 23.7774 70.9249 24.7682L76.383 24.8744C78.9428 24.9058 81.3876 25.943 83.1891 27.7619C84.9906 29.5808 86.0043 32.0354 86.011 34.5954Z" fill="white"/>
<path d="M77.5649 43.7056C77.1716 43.7393 76.7762 43.7393 76.383 43.7056L10.434 42.3776C7.92098 42.3474 5.5176 41.3438 3.72938 39.5778C1.94116 37.8119 0.907479 35.4213 0.845776 32.9088C0.831956 31.669 1.07361 30.4396 1.5557 29.2972C2.03779 28.1548 2.74998 27.1239 3.64788 26.2688C0.991858 42.5635 18.0568 40.2262 18.0568 40.2262H60.9117L77.5649 43.7056Z" fill="url(#paint0_linear)"/>
<path d="M17.4592 25.565L12.665 23.7456C12.2009 22.1171 11.9641 20.4323 11.9612 18.739C11.9575 16.3187 12.4479 13.9231 13.4024 11.699C14.3569 9.47484 15.7554 7.46896 17.5123 5.80421C19.0611 4.31961 20.8592 3.11935 22.8243 2.25842C9.59736 13.6262 17.4592 25.565 17.4592 25.565Z" fill="url(#paint1_linear)"/>
<defs>
<linearGradient id="paint0_linear" x1="2064.6" y1="2350.82" x2="2986.91" y2="466.565" gradientUnits="userSpaceOnUse">
<stop offset="0.01"/>
<stop offset="0.13" stop-opacity="0.69"/>
<stop offset="0.25" stop-opacity="0.32"/>
<stop offset="1" stop-opacity="0"/>
</linearGradient>
<linearGradient id="paint1_linear" x1="304.18" y1="3104.83" x2="949.528" y2="2964.96" gradientUnits="userSpaceOnUse">
<stop offset="0.01"/>
<stop offset="0.13" stop-opacity="0.69"/>
<stop offset="0.25" stop-opacity="0.32"/>
<stop offset="1" stop-opacity="0"/>
</linearGradient>
</defs>
</svg>
