<svg width="107" height="161" viewBox="0 0 107 161" fill="none" xmlns="http://www.w3.org/2000/svg">
<path d="M66.5538 132.443C66.0757 134.01 65.6242 135.843 66.5538 137.158C67.0106 137.72 67.6121 138.147 68.2935 138.393C69.0866 138.771 69.9691 138.923 70.8432 138.832C71.7174 138.741 72.5492 138.409 73.2469 137.875C73.9758 137.077 74.4919 136.109 74.7476 135.059C75.9891 131.249 76.8781 127.333 77.4036 123.36C77.5036 122.995 77.5036 122.609 77.4036 122.244C77.1961 121.861 76.8632 121.561 76.4607 121.394C74.3492 120.265 71.0425 119.362 69.8207 121.859C68.32 125.073 67.6162 129.044 66.5538 132.443Z" fill="#FBC4D6"/>
<path d="M72.9414 134.263C73.3874 134.201 73.8415 134.242 74.2694 134.382C74.5609 134.544 74.8144 134.765 75.0131 135.033L79.5948 140.172C80.4845 141.168 81.4141 142.536 80.79 143.718C80.5701 144.047 80.2795 144.323 79.9394 144.525C79.5994 144.727 79.2185 144.851 78.8245 144.887C76.6054 145.09 74.3747 144.652 72.3969 143.625C70.9893 143.014 69.5948 142.297 68.227 141.633C67.2107 141.172 66.3219 140.47 65.6374 139.588C64.5883 137.994 64.3094 134.17 66.142 132.948C67.0849 132.35 67.9083 132.775 68.7981 133.187C70.0701 133.88 71.493 134.249 72.9414 134.263Z" fill="#68E1FD"/>
<path d="M91.9452 149.946C91.981 150.242 91.9492 150.542 91.8523 150.823C91.6941 151.096 91.4645 151.321 91.1883 151.474C90.3173 152.073 89.2963 152.418 88.2401 152.47C87.7125 152.489 87.1876 152.387 86.7061 152.171C86.2247 151.954 85.7997 151.629 85.4645 151.221C84.9757 150.448 84.6797 149.569 84.6013 148.658C84.2122 146.699 84.0209 144.706 84.0303 142.709C84.0071 142.591 84.0097 142.47 84.038 142.354C84.0663 142.238 84.1197 142.129 84.1942 142.036C84.2688 141.942 84.3629 141.866 84.4699 141.813C84.5769 141.759 84.6942 141.73 84.8138 141.726C86.4605 141.381 89.7407 140.518 90.5774 142.536C91.4298 144.916 91.8917 147.419 91.9452 149.946Z" fill="#FBC4D6"/>
<path d="M98.9173 149.747C100.332 149.824 101.731 150.092 103.074 150.544C103.742 150.775 104.355 151.141 104.876 151.618C105.396 152.095 105.814 152.675 106.102 153.32C106.37 153.951 106.403 154.658 106.195 155.312C105.736 156.282 104.931 157.044 103.937 157.45C99.2173 159.958 93.8925 161.103 88.5588 160.756C87.1902 160.811 85.8533 160.336 84.8271 159.428C84.0864 158.332 83.7399 157.016 83.8444 155.697L83.6584 149.455C84.8602 149.509 86.0331 149.84 87.0847 150.425C89.0502 151.089 89.8204 149.495 91.4406 149.097C93.5521 148.605 96.7659 149.535 98.9173 149.747Z" fill="#68E1FD"/>
<path d="M72.9414 134.263C73.3874 134.201 73.8415 134.242 74.2694 134.382C74.5609 134.544 74.8144 134.765 75.0131 135.033L79.5948 140.172C80.4845 141.168 81.4141 142.536 80.79 143.718C80.5701 144.047 80.2795 144.323 79.9394 144.525C79.5994 144.727 79.2185 144.851 78.8245 144.887C76.6054 145.09 74.3747 144.652 72.3969 143.625C70.9893 143.014 69.5948 142.297 68.227 141.633C67.2107 141.172 66.3219 140.47 65.6374 139.588C64.5883 137.994 64.3094 134.17 66.142 132.948C67.0849 132.35 67.9083 132.775 68.7981 133.187C70.0701 133.88 71.493 134.249 72.9414 134.263Z" fill="url(#paint0_linear)"/>
<path d="M98.9173 149.747C100.332 149.824 101.731 150.092 103.074 150.544C103.742 150.775 104.355 151.141 104.876 151.618C105.396 152.095 105.814 152.675 106.102 153.32C106.37 153.951 106.403 154.658 106.195 155.312C105.736 156.282 104.931 157.044 103.937 157.45C99.2173 159.958 93.8925 161.103 88.5588 160.756C87.1902 160.811 85.8533 160.336 84.8271 159.428C84.0864 158.332 83.7399 157.016 83.8444 155.697L83.6584 149.455C84.8602 149.509 86.0331 149.84 87.0847 150.425C89.0502 151.089 89.8204 149.495 91.4406 149.097C93.5521 148.605 96.7659 149.535 98.9173 149.747Z" fill="url(#paint1_linear)"/>
<path d="M23.2607 82.125C20.404 81.877 17.5294 81.9215 14.6818 82.2578C14.3094 82.2768 13.9482 82.3912 13.6326 82.5898C13.4512 82.7607 13.306 82.9663 13.2056 83.1945C13.1052 83.4226 13.0517 83.6686 13.0483 83.9178C12.6499 87.769 15.7043 91.1156 18.9978 93.1475C27.9087 98.672 39.1437 98.4595 48.9843 102.072C49.9231 102.32 50.7567 102.865 51.3614 103.625C51.7718 104.449 51.9725 105.362 51.9457 106.281C52.384 111.474 55.2657 116.149 56.2219 121.261C57.1781 126.374 56.1555 131.726 56.939 136.879C60.1661 133.439 65.664 132.895 68.8911 129.495C71.919 126.361 72.5166 121.686 72.9681 117.357L74.1899 105.485C74.4163 104.629 74.3227 103.719 73.9267 102.927C73.5306 102.135 72.8593 101.514 72.0385 101.182C57.5101 91.7929 40.485 83.6124 23.2607 82.125Z" fill="url(#paint2_linear)"/>
<path d="M82.0119 80.9297C83.3542 81.199 84.5981 81.8278 85.6108 82.7491C86.6493 84.1951 87.1218 85.9716 86.9388 87.7424C86.9073 100.343 84.5248 112.828 79.9136 124.555C79.8703 124.967 79.7266 125.362 79.4951 125.706C79.2637 126.05 78.9515 126.332 78.5859 126.527C78.2203 126.722 77.8125 126.825 77.398 126.826C76.9835 126.827 76.5751 126.727 76.2085 126.534C73.4469 125.788 70.7253 124.902 68.0545 123.878L71.6667 99.9734C71.8391 99.31 71.802 98.6096 71.5604 97.9681C71.2936 97.5132 70.9198 97.1303 70.4715 96.8526C66.3515 93.8556 61.9996 91.1912 57.457 88.8845C53.8315 87.0519 49.6748 84.9005 48.6921 81.0227C48.4882 80.3601 48.4469 79.6582 48.5718 78.9762C48.6966 78.2943 48.9838 77.6525 49.4092 77.1051C49.9836 76.5408 50.6595 76.0902 51.4012 75.7771C53.8049 74.5951 56.8328 73.1211 59.5951 73.3601C61.8128 73.5859 62.6628 74.8607 64.5087 75.8036C69.6348 78.3534 76.4475 79.3096 82.0119 80.9297Z" fill="#282328"/>
<path d="M57.3373 42.9089C59.1168 47.8092 59.9933 53.0017 61.5604 57.9552C61.9035 59.2682 62.5188 60.4943 63.3665 61.5541C64.493 62.6346 65.8577 63.4353 67.3505 63.8914C69.431 64.6971 71.547 65.4009 73.6984 66.003C75.1326 66.3881 76.8457 67.0521 77.0051 68.5129C77.039 69.0001 76.9379 69.4871 76.7129 69.9206C76.158 70.9099 75.3589 71.7406 74.3918 72.3334C73.4247 72.9263 72.3219 73.2614 71.1884 73.307C68.9261 73.3676 66.6728 72.9981 64.5484 72.218C62.614 71.8265 60.8392 70.8698 59.4488 69.4691C58.6585 68.3041 58.1036 66.9958 57.8154 65.6178C55.636 57.8816 52.6121 50.4086 48.7982 43.3338C47.6574 41.4655 46.7645 39.4566 46.1422 37.3578C45.2657 33.6925 45.2524 25.0073 49.0372 28.1945C52.0916 30.7709 55.996 39.2701 57.3373 42.9089Z" fill="#FBC4D6"/>
<path d="M42.8488 80.465C45.0876 79.5975 47.2659 78.5815 49.3694 77.4239C57.3374 73.0149 50.8169 70.8502 48.1609 65.5515C46.2618 61.7932 47.0321 57.2912 48.0148 53.2142C49.7545 46.043 52.0785 38.6061 50.4052 31.4482C50.1961 30.2865 49.7435 29.1822 49.0772 28.2078C48.5899 27.6034 48.0276 27.0634 47.4039 26.6009C45.7218 25.1479 43.7859 24.0179 41.6935 23.2676C37.7095 21.9396 33.1942 22.9091 29.4094 24.8081C14.5357 32.2715 11.3617 51.116 11.9593 66.1889C12.1187 70.3721 12.7694 74.7944 15.4653 77.9949C18.1611 81.1954 21.9725 82.4172 25.8769 82.8953C31.6478 83.4852 37.4754 82.6507 42.8488 80.465Z" fill="#F3FBFF"/>
<path d="M20.6709 71.9392C20.7909 73.3538 21.2461 74.7195 21.9989 75.9232C23.327 77.7957 25.7705 78.4862 28.0148 79.0307L38.121 81.5274C39.3527 81.9008 40.6321 82.0931 41.9191 82.0984C44.6814 81.9656 47.0585 80.1994 49.2497 78.4995C49.8097 78.1164 50.2956 77.6349 50.684 77.0786C45.1063 76.5474 39.542 75.9896 33.9909 75.1795C30.724 74.7014 27.2712 74.0374 24.8675 71.7931C23.6256 70.5663 22.6808 69.0719 22.1052 67.4239C21.7068 66.4014 21.5209 63.7985 20.3655 63.5727C20.0745 66.362 20.1773 69.1785 20.6709 71.9392Z" fill="url(#paint3_linear)"/>
<path d="M40.6177 34.9408C40.6166 35.3596 40.4495 35.7608 40.1529 36.0563C39.8768 36.2189 39.5542 36.2844 39.2365 36.2423C38.1958 36.1935 37.1777 35.9222 36.2507 35.4468C35.3237 34.9714 34.5093 34.3027 33.8625 33.486C33.2157 32.6693 32.7514 31.7234 32.5009 30.7122C32.2505 29.7009 32.2196 28.6477 32.4106 27.6235C32.6496 26.2955 33.2207 25.1534 33.5792 23.9051C34.2831 21.4084 34.1635 18.593 35.7439 16.5346C37.1121 19.6651 38.6733 22.7077 40.4185 25.6448C40.8645 26.2288 41.1747 26.905 41.3263 27.6241C41.4779 28.3431 41.4672 29.087 41.2949 29.8014L40.6177 34.9408Z" fill="#FBC4D6"/>
<path d="M41.4013 28.5132L40.8037 32.4972C40.8037 32.4972 33.9645 29.1108 34.8543 22.8293C35.744 16.5478 41.4013 28.5132 41.4013 28.5132Z" fill="url(#paint4_linear)"/>
<path d="M49.3958 24.6355C49.045 25.9117 48.3017 27.0454 47.271 27.8758C46.7793 28.209 46.2299 28.4477 45.6508 28.5796C43.6173 28.9742 41.5111 28.7152 39.6337 27.8398C37.7564 26.9643 36.2042 25.5173 35.1994 23.7058C34.2523 21.871 33.7122 19.8533 33.6159 17.7907C33.5197 15.728 33.8695 13.6689 34.6416 11.7538C35.2736 9.65333 36.704 7.88443 38.6257 6.82685C39.6762 6.41254 40.8131 6.26483 41.9346 6.39692C43.0562 6.529 44.1276 6.93677 45.0532 7.58381C47.5688 9.34017 49.513 11.7969 50.6441 14.6488C51.6136 17.5572 50.3918 21.8599 49.3958 24.6355Z" fill="#FBC4D6"/>
<path d="M79.4221 97.6228C81.1241 99.7903 82.4691 102.216 83.4061 104.807C88.6289 117.402 92.0231 130.68 93.4857 144.236C89.2216 144.767 84.908 144.767 80.6439 144.236C80.31 134.666 78.8343 125.17 76.2482 115.949C75.7912 113.965 75.0057 112.071 73.9242 110.345C72.0251 107.596 68.9043 106.003 65.9561 104.515C59.0577 101.163 51.8476 98.4942 44.4291 96.5471C41.2949 95.6839 38.1343 94.8871 35.0533 93.8911C32.4637 93.0146 25.1995 89.8009 23.1012 88.0612C22.0016 87.2275 21.0818 86.1801 20.3972 84.982C19.7126 83.7839 19.2772 82.4597 19.1172 81.0891C19.1172 81.7797 39.3561 83.1608 40.8036 83.0014C45.6774 82.4835 51.4277 79.6947 56.2351 81.6734C59.9933 83.2139 63.4329 86.4277 66.8591 88.6455C71.0158 91.2484 76.0888 93.7716 79.4221 97.6228Z" fill="#473F47"/>
<path d="M57.2444 96.6003L32.5435 84.5287L61.5074 72.2446L86.2216 83.0413L57.2444 96.6003Z" fill="#68E1FD"/>
<path d="M19.6218 39.9208C19.6218 40.3856 19.5023 40.8371 19.4492 41.2488C18.7188 48.0482 19.3828 54.7149 19.6351 61.4744C19.7945 65.6577 20.339 73.6257 24.7878 75.7638C33.1011 79.7478 49.1435 78.2339 49.1435 78.2339C51.0036 77.9357 52.9045 78.0125 54.7344 78.4597C55.7304 78.7651 56.6468 79.283 57.6162 79.6549C61.1221 80.9829 65.0398 80.3189 68.7316 79.6549C69.3678 79.5794 69.9821 79.3761 70.5377 79.0573C71.182 78.485 71.5752 77.6822 71.6323 76.8224C71.6895 75.9626 71.406 75.1148 70.8432 74.4624C69.6446 73.203 68.0861 72.3449 66.3811 72.0055C61.7188 70.4837 56.7248 70.2905 51.9589 71.4478C51.3498 71.653 50.7289 71.8215 50.0997 71.9524C49.3622 72.072 48.6155 72.1253 47.8686 72.1118H42.2113C35.704 72.1118 29.5686 72.1915 28.5859 64.582C28.2231 61.7637 28.1519 58.9156 28.3734 56.0827C28.7585 50.9699 30.0998 45.8969 29.8209 40.784C29.8041 39.1625 29.3988 37.5686 28.639 36.136C28.2539 35.4246 27.6927 34.824 27.0091 34.3915C26.3255 33.9591 25.5424 33.7092 24.7347 33.6659C23.8982 33.7283 23.092 34.0056 22.394 34.4709C21.6961 34.9362 21.13 35.5738 20.7506 36.3219C20.1627 37.4446 19.7804 38.6635 19.6218 39.9208Z" fill="#FBC4D6"/>
<path d="M96.3941 58.6856L61.8659 76.2552L57.2444 96.6003L86.2216 83.0413L96.3941 58.6856Z" fill="#68E1FD"/>
<path d="M51.0957 17.3048C51.0579 16.0405 50.5893 14.827 49.7677 13.8653C49.3505 13.3812 48.8571 12.9685 48.3069 12.6435C47.5367 12.192 47.3507 12.1521 46.8461 12.8825C46.1954 13.8254 45.9829 14.9277 45.3853 15.9104C44.7314 17.0003 43.8192 17.9125 42.7293 18.5664C41.5043 19.3265 40.0794 19.7012 38.639 19.6421C38.0668 19.5556 37.4848 19.5556 36.9126 19.6421C36.7204 19.6785 36.5386 19.7568 36.3802 19.8716C36.2218 19.9864 36.0907 20.1348 35.9963 20.3061C35.8592 20.8028 35.8098 21.3196 35.8502 21.8333C35.7307 23.1613 34.4159 24.1042 33.6855 25.2596C32.9551 26.415 32.7426 28.1281 31.8662 29.3631C31.7035 29.6109 31.4792 29.8123 31.2154 29.9475C30.5913 30.2131 29.8874 29.8678 29.2367 29.7483C27.3111 29.4163 25.7573 31.2091 24.1106 32.298C20.8038 34.476 16.4745 33.9182 12.5702 33.2675C11.3748 33.1229 10.2097 32.7913 9.11734 32.2848C7.93758 31.5885 6.89007 30.6894 6.02308 29.6287C4.57554 28.0351 3.1413 26.415 1.72033 24.7948C1.19226 24.2761 0.772462 23.6577 0.485277 22.9754C0.333278 22.4996 0.292395 21.9954 0.365761 21.5013C0.495339 20.5791 0.768677 19.6829 1.17584 18.8453C2.21169 16.5213 3.42018 13.9981 5.75748 12.9489C8.09477 11.8998 10.857 12.6833 13.4334 12.4177C13.7473 12.4171 14.0533 12.3197 14.3099 12.1389C14.515 11.9072 14.6608 11.6292 14.7348 11.3288C15.8105 7.75642 17.1518 3.87864 20.3656 2.0327C22.842 0.843102 25.6337 0.475533 28.3336 0.983573C31.0069 1.48869 33.7343 1.64493 36.4478 1.44837C37.7758 1.23589 39.1038 0.797651 40.4318 0.532049C43.5373 -0.158002 46.788 0.314485 49.5685 1.86006C50.9408 2.67664 52.0888 3.82129 52.9093 5.1912C53.7299 6.56111 54.1973 8.11338 54.2697 9.7086C54.2164 10.3316 54.2164 10.9581 54.2697 11.5811C54.3626 12.1654 54.615 12.7365 54.7079 13.3208C54.7623 13.8258 54.7091 14.3367 54.5519 14.8197C54.3947 15.3028 54.1371 15.7471 53.7959 16.1234C53.4547 16.4997 53.0377 16.7996 52.5723 17.0032C52.1069 17.2068 51.6037 17.3096 51.0957 17.3048Z" fill="#FF681C"/>
<path d="M18.4135 43.6924C18.004 47.4508 17.9596 51.24 18.2807 55.007C18.2646 55.3339 18.348 55.658 18.5197 55.9366C18.802 56.2456 19.1914 56.4356 19.6087 56.4678C21.7595 56.8682 23.9415 57.0771 26.1292 57.092C26.4362 57.1901 26.761 57.2193 27.0805 57.1775C27.4 57.1357 27.7064 57.024 27.9778 56.8503C28.2492 56.6765 28.4789 56.445 28.6506 56.1723C28.8223 55.8997 28.9318 55.5924 28.9712 55.2726C30.1664 50.2793 31.3483 45.286 32.2513 40.2263C32.6099 38.1944 32.8622 35.9102 31.6405 34.2635C29.8742 31.8731 25.1067 31.6075 22.8092 33.3472C20.0337 35.4853 18.8517 40.4786 18.4135 43.6924Z" fill="#F3FBFF"/>
<path d="M55.9962 37.3179L59.7544 46.3218C59.9403 46.6719 60.0145 47.0705 59.9669 47.4639C59.8713 47.7869 59.6873 48.0767 59.4357 48.3006C57.5999 50.2419 55.4207 51.8268 53.0082 52.9752C50.7838 50.9878 48.9779 48.577 47.6961 45.8836C46.4478 42.6831 46.7267 39.124 47.0985 35.711C47.3243 33.5464 47.2446 26.5876 50.9232 29.2835C53.4862 31.1294 54.8408 34.5424 55.9962 37.3179Z" fill="#F3FBFF"/>
<path d="M37.0055 19.6687C36.8133 19.7051 36.6315 19.7834 36.4731 19.8982C36.3147 20.013 36.1836 20.1614 36.0892 20.3327C35.9522 20.8294 35.9027 21.3462 35.9431 21.8599C35.8236 23.1879 34.5089 24.1308 33.7785 25.2862C33.0481 26.4416 32.8356 28.1547 31.9591 29.3897C31.7964 29.6375 31.5722 29.8389 31.3084 29.9741C30.6842 30.2397 29.9804 29.8944 29.3296 29.7749C27.404 29.4429 25.8503 31.2357 24.2035 32.3246C20.8968 34.5026 16.5675 33.9448 12.6631 33.2941C11.4346 33.1508 10.2372 32.8099 9.11734 32.2848C7.93758 31.5886 6.89007 30.6894 6.02307 29.6288C4.57554 28.0352 3.1413 26.415 1.72033 24.7948C1.19226 24.2761 0.772462 23.6577 0.485277 22.9755C0.333278 22.4997 0.292395 21.9954 0.365761 21.5014C0.985076 21.1275 1.62833 20.7947 2.29137 20.5054C4.32711 19.4128 6.70686 19.151 8.93142 19.775C10.711 20.4655 11.9726 22.0459 13.4998 23.1747C15.6296 24.6659 18.2203 25.3511 20.8089 25.1078C23.3974 24.8645 25.8151 23.7086 27.6298 21.8467C28.299 20.9649 29.0854 20.1786 29.9671 19.5094C31.5474 18.6462 34.7612 18.7789 37.0055 19.6687Z" fill="url(#paint5_linear)"/>
<defs>
<linearGradient id="paint0_linear" x1="-14329" y1="1920.63" x2="-14601" y2="2098.45" gradientUnits="userSpaceOnUse">
<stop offset="0.01"/>
<stop offset="0.13" stop-opacity="0.69"/>
<stop offset="0.25" stop-opacity="0.32"/>
<stop offset="1" stop-opacity="0"/>
</linearGradient>
<linearGradient id="paint1_linear" x1="-20187.8" y1="2172.49" x2="-20266.6" y2="1833.82" gradientUnits="userSpaceOnUse">
<stop offset="0.01"/>
<stop offset="0.13" stop-opacity="0.69"/>
<stop offset="0.25" stop-opacity="0.32"/>
<stop offset="1" stop-opacity="0"/>
</linearGradient>
<linearGradient id="paint2_linear" x1="-57515.9" y1="4830.17" x2="-61252.8" y2="10611.8" gradientUnits="userSpaceOnUse">
<stop offset="0.01"/>
<stop offset="0.13" stop-opacity="0.69"/>
<stop offset="0.25" stop-opacity="0.32"/>
<stop offset="1" stop-opacity="0"/>
</linearGradient>
<linearGradient id="paint3_linear" x1="4736.96" y1="1479.31" x2="4123.88" y2="2948.59" gradientUnits="userSpaceOnUse">
<stop offset="0.01"/>
<stop offset="0.13" stop-opacity="0.69"/>
<stop offset="0.25" stop-opacity="0.32"/>
<stop offset="1" stop-opacity="0"/>
</linearGradient>
<linearGradient id="paint4_linear" x1="-5354.54" y1="669.911" x2="-5490.29" y2="840.978" gradientUnits="userSpaceOnUse">
<stop offset="0.01"/>
<stop offset="0.13" stop-opacity="0.69"/>
<stop offset="0.25" stop-opacity="0.32"/>
<stop offset="1" stop-opacity="0"/>
</linearGradient>
<linearGradient id="paint5_linear" x1="5643.91" y1="1220.66" x2="4882.08" y2="-204.403" gradientUnits="userSpaceOnUse">
<stop offset="0.01"/>
<stop offset="0.13" stop-opacity="0.69"/>
<stop offset="0.25" stop-opacity="0.32"/>
<stop offset="1" stop-opacity="0"/>
</linearGradient>
</defs>
</svg>
