<svg xmlns="http://www.w3.org/2000/svg" viewBox="0 0 58.1904747367777 36.00000000000001" preserveAspectRatio="xMidYMid meet" class="css-1qcdqov" id="chedbbea"><defs id="SvgjsDefs1001"><linearGradient id="SvgjsLinearGradient1011"><stop id="SvgjsStop1012" stop-color="#2d388a" offset="0"/><stop id="SvgjsStop1013" stop-color="#00aeef" offset="1"/></linearGradient><linearGradient id="SvgjsLinearGradient1014"><stop id="SvgjsStop1015" stop-color="#147d6c" offset="0"/><stop id="SvgjsStop1016" stop-color="#1effff" offset="1"/></linearGradient></defs><g id="SvgjsG1007" featurekey="nameLeftFeature-0" transform="matrix(2.3809520986225277,0,0,2.3809520986225277,5.676632162624663e-7,-11.61904651375628)" fill="url(#SvgjsLinearGradient1011)"><path d="M0.6 4.880000000000001 l7.26 0 c2.48 0.02 4.48 2.04 4.48 4.5 l0 0.3 c0 2.32 -1.78 4.24 -4.04 4.48 l3.36 3.34 c0.58 0.58 0.58 1.5 0 2.08 c-0.54 0.54 -1.48 0.56 -2.04 0.02 l-5.6 -5.6 c-0.24 -0.24 -0.24 -0.62 0 -0.86 s0.62 -0.24 0.86 0 l5.58 5.58 c0.1 0.08 0.24 0.08 0.34 0 c0.1 -0.1 0.1 -0.26 0 -0.36 l-4.36 -4.36 c-0.12 -0.1 -0.18 -0.26 -0.18 -0.42 c0 -0.34 0.26 -0.62 0.6 -0.62 l0.98 0 c1.8 0 3.28 -1.48 3.28 -3.28 l0 -0.3 c0 -1.8 -1.48 -3.28 -3.3 -3.28 l-6.6 0 l0 13.3 c0 0.32 -0.28 0.6 -0.62 0.6 c-0.32 0 -0.6 -0.28 -0.6 -0.6 l0 -13.92 c0 -0.32 0.28 -0.6 0.6 -0.6 z M2.32 6.6 l5.52 0 c1.54 0 2.8 1.24 2.8 2.78 c0 0.34 -0.28 0.62 -0.62 0.62 s-0.6 -0.28 -0.6 -0.62 c0 -0.86 -0.7 -1.56 -1.58 -1.56 l-4.92 0 l0 11.58 c0 0.32 -0.26 0.6 -0.6 0.6 s-0.62 -0.28 -0.62 -0.6 l0 -12.2 c0 -0.32 0.28 -0.6 0.62 -0.6 z"/></g><g id="SvgjsG1008" featurekey="nameRightFeature-0" transform="matrix(2.380952248797973,0,0,2.380952248797973,31.999998864673497,-11.619046111285966)" fill="url(#SvgjsLinearGradient1014)"><path d="M2.34 4.880000000000001 c0.34 0 0.6 0.28 0.6 0.6 l0 11.58 l6.58 0 c0.82 0 1.48 0.66 1.48 1.46 c0 0.82 -0.66 1.48 -1.48 1.48 l-6.02 0 c-0.96 0 -1.74 -0.78 -1.78 -1.72 c-0.94 -0.04 -1.72 -0.82 -1.72 -1.78 l0 -11.02 c0 -0.32 0.28 -0.6 0.6 -0.6 c0.34 0 0.62 0.28 0.62 0.6 l0 11.02 c0 0.28 0.22 0.52 0.5 0.56 l0 -11.58 c0 -0.32 0.28 -0.6 0.62 -0.6 z M9.52 18.28 l-6.58 0 c0.04 0.28 0.28 0.5 0.56 0.5 l6.02 0 c0.14 0 0.26 -0.12 0.26 -0.26 s-0.12 -0.24 -0.26 -0.24 z"/></g></svg>