<svg width="86" height="44" viewBox="0 0 86 44" fill="none" xmlns="http://www.w3.org/2000/svg">
<path d="M85.1919 34.0811C85.1945 35.3099 84.9448 36.5263 84.4583 37.6547C83.9717 38.7832 83.2586 39.7998 82.3632 40.6414C80.8302 42.0981 78.8514 42.9962 76.7457 43.1912C76.3525 43.2246 75.9571 43.2246 75.5638 43.1912L9.60157 41.8632C7.07273 41.8359 4.6544 40.8228 2.86118 39.0395C1.06796 37.2562 0.0414345 34.8435 6.67451e-05 32.3148C-0.00465708 31.0861 0.24141 29.8693 0.723222 28.739C1.20503 27.6087 1.91245 26.5886 2.80217 25.7412C4.6337 24.0001 7.07485 23.0465 9.60157 23.0851H11.8459C11.3818 21.4567 11.1449 19.7719 11.1421 18.0786C11.1384 15.6582 11.6288 13.2626 12.5833 11.0385C13.5378 8.81436 14.9363 6.80849 16.6931 5.14374C18.2435 3.66107 20.0413 2.46106 22.0052 1.59795C24.5497 0.489059 27.3045 -0.0546535 30.0795 0.00433438L35.6837 0.123861C39.1701 0.19501 42.5734 1.20125 45.5379 3.03743C48.5024 4.87362 50.9194 7.47235 52.5361 10.562C54.1522 9.79346 55.9264 9.41586 57.7154 9.45977H59.1629C62.1651 9.49045 65.0369 10.6913 67.1674 12.8069C69.2978 14.9224 70.5188 17.7857 70.5705 20.7877V21.3322C70.5695 22.3669 70.4174 23.3959 70.119 24.3866L75.5771 24.4928C78.1119 24.5271 80.5336 25.5474 82.3286 27.3374C84.1236 29.1275 85.1507 31.5464 85.1919 34.0811Z" fill="white"/>
<path d="M76.7457 43.1912C76.3525 43.2246 75.9571 43.2246 75.5638 43.1912L9.60157 41.8632C7.07273 41.8359 4.6544 40.8228 2.86118 39.0395C1.06796 37.2562 0.0414345 34.8435 6.67451e-05 32.3148C-0.00465708 31.0861 0.24141 29.8693 0.723222 28.739C1.20503 27.6087 1.91245 26.5886 2.80217 25.7412C0.146149 42.0358 17.2111 39.6985 17.2111 39.6985H60.0659L76.7457 43.1912Z" fill="white"/>
<path d="M76.7197 43.4368C76.3264 43.4705 75.931 43.4705 75.5378 43.4368L9.58879 42.1088C7.07576 42.0786 4.67238 41.075 2.88416 39.309C1.09595 37.5431 0.0622645 35.1525 0.00056096 32.64C-0.0132586 31.4002 0.228397 30.1708 0.710484 29.0284C1.19257 27.886 1.90476 26.8551 2.80266 26C0.146643 42.2947 17.2116 39.9574 17.2116 39.9574H60.0664L76.7197 43.4368Z" fill="url(#paint0_linear)"/>
<defs>
<linearGradient id="paint0_linear" x1="2063.76" y1="2350.55" x2="2986.07" y2="466.296" gradientUnits="userSpaceOnUse">
<stop offset="0.01"/>
<stop offset="0.13" stop-opacity="0.69"/>
<stop offset="0.25" stop-opacity="0.32"/>
<stop offset="1" stop-opacity="0"/>
</linearGradient>
</defs>
</svg>
