<svg width="80" height="80" viewBox="0 0 80 80" fill="none" xmlns="http://www.w3.org/2000/svg">
<path d="M61.9621 0H18.0379C13.0464 0 9 4.04641 9 9.0379V52.9621C9 57.9536 13.0464 62 18.0379 62H61.9621C66.9536 62 71 57.9536 71 52.9621V9.0379C71 4.04641 66.9536 0 61.9621 0Z" fill="black"/>
<path d="M61.9621 2.71137C63.64 2.71137 65.2492 3.37791 66.4356 4.56437C67.6221 5.75082 68.2886 7.36 68.2886 9.0379V52.9621C68.2886 54.64 67.6221 56.2492 66.4356 57.4356C65.2492 58.6221 63.64 59.2886 61.9621 59.2886H18.0379C16.36 59.2886 14.7508 58.6221 13.5644 57.4356C12.3779 56.2492 11.7114 54.64 11.7114 52.9621V9.0379C11.7114 7.36 12.3779 5.75082 13.5644 4.56437C14.7508 3.37791 16.36 2.71137 18.0379 2.71137H61.9621ZM61.9621 0H18.0379C15.6409 0 13.3421 0.952204 11.6471 2.64714C9.9522 4.34207 9 6.6409 9 9.0379V52.9621C9 55.3591 9.9522 57.6579 11.6471 59.3529C13.3421 61.0478 15.6409 62 18.0379 62H61.9621C64.3591 62 66.6579 61.0478 68.3529 59.3529C70.0478 57.6579 71 55.3591 71 52.9621V9.0379C71 6.6409 70.0478 4.34207 68.3529 2.64714C66.6579 0.952204 64.3591 0 61.9621 0V0Z" fill="black"/>
<path d="M32.2726 54.1823C33.2873 54.1823 34.2922 53.9825 35.2297 53.5941C36.1673 53.2058 37.0191 52.6366 37.7367 51.919C38.4542 51.2015 39.0234 50.3496 39.4118 49.4121C39.8001 48.4746 40 47.4697 40 46.4549V38.7275H32.2726C31.2578 38.7275 30.253 38.9274 29.3154 39.3158C28.3779 39.7041 27.526 40.2733 26.8085 40.9908C26.0909 41.7084 25.5217 42.5603 25.1334 43.4978C24.745 44.4353 24.5452 45.4402 24.5452 46.4549C24.5452 47.4697 24.745 48.4746 25.1334 49.4121C25.5217 50.3496 26.0909 51.2015 26.8085 51.919C27.526 52.6366 28.3779 53.2058 29.3154 53.5941C30.253 53.9825 31.2578 54.1823 32.2726 54.1823V54.1823Z" fill="white"/>
<path d="M24.5452 30.9999C24.5452 28.9504 25.3593 26.9849 26.8085 25.5358C28.2576 24.0866 30.2231 23.2725 32.2726 23.2725H40V38.7273H32.2726C30.2231 38.7273 28.2576 37.9131 26.8085 36.464C25.3593 35.0148 24.5452 33.0493 24.5452 30.9999V30.9999Z" fill="white"/>
<path d="M24.5452 15.5453C24.5452 13.4958 25.3593 11.5303 26.8085 10.0812C28.2576 8.63201 30.2231 7.81787 32.2726 7.81787H40V23.2727H32.2726C30.2231 23.2727 28.2576 22.4585 26.8085 21.0094C25.3593 19.5602 24.5452 17.5947 24.5452 15.5453V15.5453Z" fill="white"/>
<path d="M40 7.86279H47.7274C49.7768 7.86279 51.7423 8.67693 53.1915 10.1261C54.6407 11.5753 55.4548 13.5408 55.4548 15.5902C55.4548 17.6396 54.6407 19.6051 53.1915 21.0543C51.7423 22.5035 49.7768 23.3176 47.7274 23.3176H40V7.86279Z" fill="white"/>
<path d="M55.4548 30.9999C55.4548 32.5282 55.0016 34.0222 54.1525 35.293C53.3034 36.5637 52.0966 37.5542 50.6846 38.1391C49.2726 38.7239 47.7188 38.877 46.2199 38.5788C44.7209 38.2806 43.344 37.5447 42.2633 36.464C41.1826 35.3833 40.4466 34.0064 40.1485 32.5074C39.8503 31.0084 40.0033 29.4547 40.5882 28.0427C41.1731 26.6307 42.1635 25.4239 43.4343 24.5748C44.7051 23.7257 46.1991 23.2725 47.7274 23.2725C49.7768 23.2725 51.7423 24.0866 53.1915 25.5358C54.6407 26.9849 55.4548 28.9504 55.4548 30.9999Z" fill="white"/>
<path d="M25.028 65.116V66.684H20.87V69.33H24.202V70.842H20.87V75H18.896V65.116H25.028ZM26.1368 65.018C26.1368 64.7007 26.2488 64.444 26.4728 64.248C26.6968 64.0427 26.9908 63.94 27.3548 63.94C27.7188 63.94 28.0128 64.0427 28.2368 64.248C28.4608 64.444 28.5728 64.7007 28.5728 65.018C28.5728 65.326 28.4608 65.5827 28.2368 65.788C28.0128 65.984 27.7188 66.082 27.3548 66.082C26.9908 66.082 26.6968 65.984 26.4728 65.788C26.2488 65.5827 26.1368 65.326 26.1368 65.018ZM28.3348 67.244V75H26.3608V67.244H28.3348ZM33.1586 67.146C33.8119 67.146 34.3719 67.3 34.8386 67.608C35.3053 67.916 35.6366 68.3313 35.8326 68.854V67.244H37.7926V75.028C37.7926 75.7467 37.6479 76.3907 37.3586 76.96C37.0786 77.5387 36.6539 77.9913 36.0846 78.318C35.5246 78.6447 34.8433 78.808 34.0406 78.808C32.9206 78.808 32.0153 78.542 31.3246 78.01C30.6339 77.478 30.2139 76.7547 30.0646 75.84H32.0106C32.1226 76.232 32.3373 76.5353 32.6546 76.75C32.9813 76.974 33.3966 77.086 33.9006 77.086C34.4793 77.086 34.9459 76.9133 35.3006 76.568C35.6553 76.232 35.8326 75.7187 35.8326 75.028V73.376C35.6366 73.8987 35.3053 74.3187 34.8386 74.636C34.3719 74.944 33.8119 75.098 33.1586 75.098C32.5053 75.098 31.9173 74.9393 31.3946 74.622C30.8719 74.3047 30.4613 73.8473 30.1626 73.25C29.8733 72.6433 29.7286 71.934 29.7286 71.122C29.7286 70.31 29.8733 69.6053 30.1626 69.008C30.4613 68.4013 30.8719 67.9393 31.3946 67.622C31.9173 67.3047 32.5053 67.146 33.1586 67.146ZM33.7746 68.868C33.1586 68.868 32.6639 69.0687 32.2906 69.47C31.9173 69.8713 31.7306 70.422 31.7306 71.122C31.7306 71.822 31.9173 72.3727 32.2906 72.774C32.6639 73.166 33.1586 73.362 33.7746 73.362C34.3719 73.362 34.8619 73.1613 35.2446 72.76C35.6366 72.3493 35.8326 71.8033 35.8326 71.122C35.8326 70.4313 35.6366 69.8853 35.2446 69.484C34.8619 69.0733 34.3719 68.868 33.7746 68.868ZM49.4515 67.132C50.3942 67.132 51.1362 67.426 51.6775 68.014C52.2282 68.5927 52.5035 69.4187 52.5035 70.492V75H50.5435V70.716C50.5435 70.1187 50.3895 69.6613 50.0815 69.344C49.7829 69.0173 49.3675 68.854 48.8355 68.854C48.2849 68.854 47.8462 69.0267 47.5195 69.372C47.1929 69.7173 47.0295 70.2213 47.0295 70.884V75H45.0695V70.716C45.0695 70.1187 44.9155 69.6613 44.6075 69.344C44.3089 69.0173 43.8935 68.854 43.3615 68.854C42.8109 68.854 42.3722 69.0267 42.0455 69.372C41.7189 69.7173 41.5555 70.2213 41.5555 70.884V75H39.5815V67.244H41.5555V68.714C41.7609 68.21 42.0829 67.8227 42.5215 67.552C42.9695 67.272 43.4875 67.132 44.0755 67.132C44.7009 67.132 45.2422 67.2813 45.6995 67.58C46.1662 67.8787 46.5162 68.308 46.7495 68.868C46.9922 68.336 47.3515 67.916 47.8275 67.608C48.3129 67.2907 48.8542 67.132 49.4515 67.132ZM57.2758 67.146C57.9291 67.146 58.4891 67.3 58.9558 67.608C59.4225 67.916 59.7538 68.3313 59.9498 68.854V67.244H61.9098V75H59.9498V73.376C59.7538 73.8987 59.4225 74.3187 58.9558 74.636C58.4891 74.944 57.9291 75.098 57.2758 75.098C56.6225 75.098 56.0345 74.9393 55.5118 74.622C54.9891 74.3047 54.5785 73.8473 54.2798 73.25C53.9905 72.6433 53.8458 71.934 53.8458 71.122C53.8458 70.31 53.9905 69.6053 54.2798 69.008C54.5785 68.4013 54.9891 67.9393 55.5118 67.622C56.0345 67.3047 56.6225 67.146 57.2758 67.146ZM57.8918 68.868C57.2758 68.868 56.7811 69.0687 56.4078 69.47C56.0345 69.8713 55.8478 70.422 55.8478 71.122C55.8478 71.822 56.0345 72.3727 56.4078 72.774C56.7811 73.166 57.2758 73.362 57.8918 73.362C58.4891 73.362 58.9791 73.1613 59.3618 72.76C59.7538 72.3493 59.9498 71.8033 59.9498 71.122C59.9498 70.4313 59.7538 69.8853 59.3618 69.484C58.9791 69.0733 58.4891 68.868 57.8918 68.868Z" fill="black"/>
</svg>
