<svg width="960" height="341" viewBox="0 0 960 341" fill="none" xmlns="http://www.w3.org/2000/svg">
<path d="M0 29.9695L22.8 32.5777C45.7 35.186 91.3 40.4025 137 35.335C182.7 30.193 228.3 14.8416 274 7.24035C319.7 -0.360861 365.3 -0.0627648 411.2 8.87984C457 17.8224 503 35.4095 548.8 39.1356C594.7 42.8617 640.3 32.7268 686 23.6351C731.7 14.5435 777.3 6.64418 823 3.14166C868.7 -0.36086 914.3 0.682434 937.2 1.12956L960 1.65123V173.796H937.2C914.3 173.796 868.7 173.796 823 173.796C777.3 173.796 731.7 173.796 686 173.796C640.3 173.796 594.7 173.796 548.8 173.796C503 173.796 457 173.796 411.2 173.796C365.3 173.796 319.7 173.796 274 173.796C228.3 173.796 182.7 173.796 137 173.796C91.3 173.796 45.7 173.796 22.8 173.796H0V29.9695Z" fill="#FA7268"/>
<path d="M960 311.661L937.2 309.053C914.3 306.445 868.7 301.228 823 306.296C777.3 311.438 731.7 326.789 686 334.391C640.3 341.992 594.7 341.694 548.8 332.751C503 323.808 457 306.221 411.2 302.495C365.3 298.769 319.7 308.904 274 317.996C228.3 327.087 182.7 334.987 137 338.489C91.3 341.992 45.7 340.948 22.8 340.501L0 339.98V167.835H22.8C45.7 167.835 91.3 167.835 137 167.835C182.7 167.835 228.3 167.835 274 167.835C319.7 167.835 365.3 167.835 411.2 167.835C457 167.835 503 167.835 548.8 167.835C594.7 167.835 640.3 167.835 686 167.835C731.7 167.835 777.3 167.835 823 167.835C868.7 167.835 914.3 167.835 937.2 167.835H960V311.661Z" fill="#FA7268"/>
<path d="M0 35.931L22.8 39.061C45.7 42.1164 91.3 48.3762 137 46.7367C182.7 45.0972 228.3 35.7075 274 35.4094C319.7 35.1858 365.3 44.1284 411.2 51.4315C457 58.8092 503 64.4728 548.8 67.4537C594.7 70.4346 640.3 70.7327 686 63.355C731.7 56.0519 777.3 41.1476 823 40.775C868.7 40.4023 914.3 54.5615 937.2 61.641L960 68.7206V173.796H937.2C914.3 173.796 868.7 173.796 823 173.796C777.3 173.796 731.7 173.796 686 173.796C640.3 173.796 594.7 173.796 548.8 173.796C503 173.796 457 173.796 411.2 173.796C365.3 173.796 319.7 173.796 274 173.796C228.3 173.796 182.7 173.796 137 173.796C91.3 173.796 45.7 173.796 22.8 173.796H0V35.931Z" fill="#EF5F67"/>
<path d="M960 301.228L937.2 298.098C914.3 295.043 868.7 288.783 823 290.422C777.3 292.062 731.7 301.452 686 301.75C640.3 301.973 594.7 293.031 548.8 285.728C503 278.35 457 272.686 411.2 269.705C365.3 266.725 319.7 266.427 274 273.804C228.3 281.107 182.7 296.012 137 296.384C91.3 296.757 45.7 282.598 22.8 275.518L0 268.439V163.363H22.8C45.7 163.363 91.3 163.363 137 163.363C182.7 163.363 228.3 163.363 274 163.363C319.7 163.363 365.3 163.363 411.2 163.363C457 163.363 503 163.363 548.8 163.363C594.7 163.363 640.3 163.363 686 163.363C731.7 163.363 777.3 163.363 823 163.363C868.7 163.363 914.3 163.363 937.2 163.363H960V301.228Z" fill="#EF5F67"/>
<path d="M0 86.6063L22.8 89.0655C45.7 91.5992 91.3 96.5177 137 96.145C182.7 95.7724 228.3 90.1088 274 86.0101C319.7 81.9114 365.3 79.3777 411.2 76.9185C457 74.4592 503 71.9255 548.8 74.8319C594.7 77.6637 640.3 85.861 686 86.8298C731.7 87.8731 777.3 81.6133 823 80.7936C868.7 79.8993 914.3 84.3706 937.2 86.6063L960 88.8419V173.797H937.2C914.3 173.797 868.7 173.797 823 173.797C777.3 173.797 731.7 173.797 686 173.797C640.3 173.797 594.7 173.797 548.8 173.797C503 173.797 457 173.797 411.2 173.797C365.3 173.797 319.7 173.797 274 173.797C228.3 173.797 182.7 173.797 137 173.797C91.3 173.797 45.7 173.797 22.8 173.797H0V86.6063Z" fill="#E34C67"/>
<path d="M960 250.554L937.2 248.095C914.3 245.561 868.7 240.643 823 241.015C777.3 241.388 731.7 247.051 686 251.15C640.3 255.249 594.7 257.782 548.8 260.242C503 262.701 457 265.235 411.2 262.328C365.3 259.496 319.7 251.299 274 250.33C228.3 249.287 182.7 255.547 137 256.367C91.3 257.261 45.7 252.79 22.8 250.554L0 248.318V163.363H22.8C45.7 163.363 91.3 163.363 137 163.363C182.7 163.363 228.3 163.363 274 163.363C319.7 163.363 365.3 163.363 411.2 163.363C457 163.363 503 163.363 548.8 163.363C594.7 163.363 640.3 163.363 686 163.363C731.7 163.363 777.3 163.363 823 163.363C868.7 163.363 914.3 163.363 937.2 163.363H960V250.554Z" fill="#E34C67"/>
<path d="M0 104.491L22.8 103.596C45.7 102.777 91.3 100.988 137 101.286C182.7 101.51 228.3 103.745 274 105.236C319.7 106.726 365.3 107.471 411.2 106.577C457 105.757 503 103.224 548.8 100.615C594.7 98.0071 640.3 95.3244 686 93.4613C731.7 91.5983 777.3 90.555 823 96.0696C868.7 101.51 914.3 113.433 937.2 119.395L960 125.357V173.796H937.2C914.3 173.796 868.7 173.796 823 173.796C777.3 173.796 731.7 173.796 686 173.796C640.3 173.796 594.7 173.796 548.8 173.796C503 173.796 457 173.796 411.2 173.796C365.3 173.796 319.7 173.796 274 173.796C228.3 173.796 182.7 173.796 137 173.796C91.3 173.796 45.7 173.796 22.8 173.796H0V104.491Z" fill="#D53867"/>
<path d="M960 232.669L937.2 233.563C914.3 234.383 868.7 236.171 823 235.873C777.3 235.65 731.7 233.414 686 231.923C640.3 230.433 594.7 229.688 548.8 230.582C503 231.402 457 233.936 411.2 236.544C365.3 239.152 319.7 241.835 274 243.698C228.3 245.561 182.7 246.604 137 241.09C91.3 235.65 45.7 223.726 22.8 217.764L0 211.803V163.363H22.8C45.7 163.363 91.3 163.363 137 163.363C182.7 163.363 228.3 163.363 274 163.363C319.7 163.363 365.3 163.363 411.2 163.363C457 163.363 503 163.363 548.8 163.363C594.7 163.363 640.3 163.363 686 163.363C731.7 163.363 777.3 163.363 823 163.363C868.7 163.363 914.3 163.363 937.2 163.363H960V232.669Z" fill="#D53867"/>
<path d="M0 139.517L22.8 140.262C45.7 141.007 91.3 142.498 137 139.144C182.7 135.791 228.3 127.594 274 125.731C319.7 123.867 365.3 128.339 411.2 127.817C457 127.37 503 121.855 548.8 125.134C594.7 128.339 640.3 140.262 686 145.33C731.7 150.472 777.3 148.683 823 147.863C868.7 146.969 914.3 146.969 937.2 146.969H960V173.797H937.2C914.3 173.797 868.7 173.797 823 173.797C777.3 173.797 731.7 173.797 686 173.797C640.3 173.797 594.7 173.797 548.8 173.797C503 173.797 457 173.797 411.2 173.797C365.3 173.797 319.7 173.797 274 173.797C228.3 173.797 182.7 173.797 137 173.797C91.3 173.797 45.7 173.797 22.8 173.797H0V139.517Z" fill="#C62368"/>
<path d="M960 188.701L937.2 187.956C914.3 187.21 868.7 185.72 823 189.073C777.3 192.427 731.7 200.624 686 202.487C640.3 204.35 594.7 199.879 548.8 200.401C503 200.848 457 206.362 411.2 203.083C365.3 199.879 319.7 187.956 274 182.888C228.3 177.746 182.7 179.535 137 180.354C91.3 181.249 45.7 181.249 22.8 181.249H0V154.421H22.8C45.7 154.421 91.3 154.421 137 154.421C182.7 154.421 228.3 154.421 274 154.421C319.7 154.421 365.3 154.421 411.2 154.421C457 154.421 503 154.421 548.8 154.421C594.7 154.421 640.3 154.421 686 154.421C731.7 154.421 777.3 154.421 823 154.421C868.7 154.421 914.3 154.421 937.2 154.421H960V188.701Z" fill="#C62368"/>
</svg>
