<svg width="633" height="448" viewBox="0 0 633 448" fill="none" xmlns="http://www.w3.org/2000/svg">
<path opacity="0.45" d="M113.109 447.922C175.577 447.922 226.217 438.331 226.217 426.499C226.217 414.668 175.577 405.076 113.109 405.076C50.6404 405.076 0 414.668 0 426.499C0 438.331 50.6404 447.922 113.109 447.922Z" fill="#F8F0FD"/>
<path d="M535.685 66.9808H118.633V341.048H535.685V66.9808Z" fill="#F8F0FD"/>
<path d="M138.798 91.994C142.565 91.994 145.619 88.9398 145.619 85.1722C145.619 81.4046 142.565 78.3504 138.798 78.3504C135.031 78.3504 131.977 81.4046 131.977 85.1722C131.977 88.9398 135.031 91.994 138.798 91.994Z" fill="#7D2EFF"/>
<path d="M159.062 91.994C162.83 91.994 165.884 88.9398 165.884 85.1722C165.884 81.4046 162.83 78.3504 159.062 78.3504C155.295 78.3504 152.241 81.4046 152.241 85.1722C152.241 88.9398 155.295 91.994 159.062 91.994Z" fill="#7FC1FF"/>
<path d="M178.17 91.994C181.937 91.994 184.991 88.9398 184.991 85.1722C184.991 81.4046 181.937 78.3504 178.17 78.3504C174.403 78.3504 171.349 81.4046 171.349 85.1722C171.349 88.9398 174.403 91.994 178.17 91.994Z" fill="#FFC553"/>
<path opacity="0.08" d="M468.091 66.9808L369.861 67.3797L354.145 89.5005L206.052 225.517L218.219 249.153L176.633 265.55H136.105L130.74 341.048H178.129L184.831 296.966C224.502 291.68 250.65 255.317 250.65 255.317L423.454 181.415L401.514 130.87L430.694 116.907L432.309 126.063C432.309 126.063 448.086 121.714 447.428 107.014C446.769 92.313 445.393 74.0618 468.091 66.9808Z" fill="black"/>
<g filter="url(#filter0_d)">
<path d="M588.699 295.769H472.02V369.572H588.699V295.769Z" fill="#F8F0FD"/>
</g>
<path opacity="0.08" d="M472.319 295.769H453.352V341.048H472.319V295.769Z" fill="black"/>
<path d="M99.8053 229.267L104.692 243.927L93.1038 251.288L88.9153 225.876L99.8053 229.267Z" fill="#B17565"/>
<path d="M84.9465 211.714C85.554 210.32 86.4998 209.099 87.6982 208.163C88.8965 207.228 90.3095 206.606 91.8091 206.354C93.3086 206.102 94.8472 206.229 96.2854 206.723C97.7235 207.216 99.0158 208.061 100.045 209.18C104.971 214.446 110.915 222.844 104.193 227.392C93.8819 234.373 84.4279 221.408 84.4279 221.408C83.6344 218.196 83.8149 214.822 84.9465 211.714V211.714Z" fill="#B17565"/>
<path d="M92.4855 220.71C92.4855 220.71 89.8328 218.495 88.6361 221.627C87.4394 224.759 92.1065 226.295 93.5027 224.699C94.8988 223.103 92.4855 220.71 92.4855 220.71Z" fill="#F4A28C"/>
<path d="M357.103 84.3204L162.608 174.095L198.21 251.238L392.705 161.464L357.103 84.3204Z" fill="#FFC553"/>
<path opacity="0.58" d="M341.105 116.116L247.77 159.009L253.6 171.696L346.934 128.804L341.105 116.116Z" fill="#FBEAC4"/>
<path opacity="0.58" d="M353.173 142.406L259.838 185.299L265.668 197.986L359.002 155.093L353.173 142.406Z" fill="#FBE8BD"/>
<path d="M220.094 218.356C232.343 218.356 242.273 208.425 242.273 196.175C242.273 183.925 232.343 173.994 220.094 173.994C207.845 173.994 197.915 183.925 197.915 196.175C197.915 208.425 207.845 218.356 220.094 218.356Z" fill="#FED380"/>
<path d="M511.691 318.368L496.134 333.488L511.691 348.627" stroke="#A5A5A5" stroke-width="2.03" stroke-linecap="round" stroke-linejoin="round"/>
<path d="M545.338 318.368L560.895 333.488L545.338 348.627" stroke="#A5A5A5" stroke-width="2.03" stroke-linecap="round" stroke-linejoin="round"/>
<path opacity="0.7" d="M319.102 42.8055C319.102 42.8055 299.934 37.6592 295.806 19.8668C295.806 19.8668 325.424 13.7432 326.402 44.3414L319.102 42.8055Z" fill="#FB75AD"/>
<path opacity="0.8" d="M321.435 40.8906C321.435 40.8906 307.972 19.807 319.66 0C319.66 0 342.258 14.222 332.365 40.8906H321.435Z" fill="#FF3A89"/>
<path d="M324.885 40.8907C324.885 40.8907 331.846 18.5504 353.187 14.222C353.187 14.222 357.176 28.7033 339.465 40.8907H324.885Z" fill="#FF1472"/>
<path d="M534.568 318.368L519.649 348.627" stroke="#A5A5A5" stroke-width="2.03" stroke-linecap="round" stroke-linejoin="round"/>
<path opacity="0.63" d="M204.058 115.092H145.599V126.063H204.058V115.092Z" fill="#CECECE"/>
<path d="M90.511 248.396C90.511 248.396 56.2653 269.14 51.7776 317.81C51.4032 321.838 52.4881 325.866 54.8348 329.162C57.1814 332.457 60.6336 334.799 64.5624 335.762L104.692 345.635L90.511 248.396Z" fill="#585858"/>
<path opacity="0.2" d="M90.511 248.396C90.511 248.396 56.2653 269.14 51.7776 317.81C51.4032 321.838 52.4881 325.866 54.8348 329.162C57.1814 332.457 60.6336 334.799 64.5624 335.762L104.692 345.635L90.511 248.396Z" fill="#585858"/>
<path d="M311.004 40.4517L314.993 66.9807H339.425L342.916 40.4517H311.004Z" fill="#413F44"/>
<path d="M93.9415 216.9C93.9415 216.9 99.4064 232.578 89.8527 231.601C80.2991 230.623 85.5446 223.881 80.7977 216.9C76.0508 209.919 78.5638 205.211 85.7839 199.088C89.1148 196.275 91.3486 194.979 92.665 193.483C93.2248 192.82 93.9436 192.31 94.7541 192C95.5647 191.691 96.4405 191.593 97.2995 191.714C98.1585 191.836 98.9725 192.174 99.6655 192.696C100.358 193.218 100.907 193.907 101.261 194.699C103.735 200.723 103.754 208.782 93.9415 216.9Z" fill="#0B0B0B"/>
<path opacity="0.08" d="M535.685 139.427H448.046V277.238H535.685V139.427Z" fill="black"/>
<path d="M97.6855 303.244L31.5584 320.288L43.7748 367.691L109.902 350.647L97.6855 303.244Z" fill="#FFC553"/>
<path opacity="0.08" d="M70.6058 309.432L78.1849 341.048L76.2103 358.461L93.9415 353.873L99.227 339.751L82.1939 306.42L70.6058 309.432Z" fill="black"/>
<path d="M82.5928 258.588C84.2198 254.978 86.6072 251.762 89.5916 249.159C92.5761 246.557 96.0873 244.629 99.8851 243.509C114.525 239.1 142.328 229.885 150.546 243.509C161.795 262.259 144.562 335.882 144.562 335.882L95.3576 339.691C95.3576 339.691 68.2124 290.942 82.5928 258.588Z" fill="#585858"/>
<path d="M144.482 335.941L138 420.535H127.768L118.634 354.811L96.0159 339.751L144.482 335.941Z" fill="#0B0B0B"/>
<path d="M96.016 339.751L81.8949 420.535H92.8647L116.559 353.435L96.016 339.751Z" fill="#0B0B0B"/>
<path d="M121.166 254.778C120.503 252.702 120.335 250.5 120.675 248.347C121.016 246.194 121.855 244.151 123.127 242.381C124.399 240.611 126.067 239.163 127.999 238.154C129.93 237.144 132.071 236.601 134.25 236.567C140.513 236.368 147.713 237.445 153.238 241.913C165.544 251.886 205.893 258.668 242.313 225.337L249.314 236.088C249.314 236.088 207.947 289.944 143.166 274.466C138.241 273.35 133.672 271.021 129.876 267.691C126.079 264.361 123.175 260.135 121.426 255.397C121.326 255.197 121.246 254.978 121.166 254.778Z" fill="#585858"/>
<path opacity="0.2" d="M121.166 254.778C120.503 252.702 120.335 250.5 120.675 248.347C121.016 246.194 121.855 244.151 123.127 242.381C124.399 240.611 126.067 239.163 127.999 238.154C129.93 237.144 132.071 236.601 134.25 236.567C140.513 236.368 147.713 237.445 153.238 241.913C165.544 251.886 205.893 258.668 242.313 225.337L249.314 236.088C249.314 236.088 207.947 289.944 143.166 274.466C138.241 273.35 133.672 271.021 129.876 267.691C126.079 264.361 123.175 260.135 121.426 255.397C121.326 255.197 121.246 254.978 121.166 254.778Z" fill="#585858"/>
<path opacity="0.08" d="M104.133 242.212C104.133 242.212 81.1168 316.354 147.574 321.261L144.482 335.941L95.2778 339.751C83.9633 319.817 78.2244 297.204 78.6636 274.286C78.6636 274.286 79.0824 255.377 92.4057 247.019C95.9294 244.603 99.9273 242.964 104.133 242.212Z" fill="black"/>
<path d="M83.8891 420.535L77.0878 425.542C76.8296 425.726 76.6368 425.988 76.5374 426.29C76.438 426.592 76.4371 426.917 76.5348 427.219C76.6326 427.521 76.8239 427.784 77.081 427.97C77.3382 428.156 77.6479 428.256 77.9654 428.254H89.374C89.7691 428.249 90.1466 428.09 90.426 427.811C90.7054 427.531 90.8647 427.154 90.8699 426.758V420.535H83.8891Z" fill="#929292"/>
<path d="M137.721 420.535L144.123 425.542C144.373 425.736 144.556 426.004 144.646 426.307C144.736 426.61 144.729 426.935 144.625 427.234C144.522 427.533 144.327 427.792 144.069 427.975C143.811 428.158 143.502 428.256 143.186 428.254H135.068C133.918 428.249 132.817 427.789 132.006 426.974C131.195 426.159 130.74 425.056 130.74 423.906V420.535H137.721Z" fill="#929292"/>
<g filter="url(#filter1_d)">
<path d="M612.952 112.599H468.091V261.361H612.952V112.599Z" fill="#F8F0FD"/>
</g>
<path d="M583.513 149.301H494.259V154.646H583.513V149.301Z" fill="#A5A5A5"/>
<path d="M583.513 183.07H494.259V188.416H583.513V183.07Z" fill="#A5A5A5"/>
<path d="M583.513 216.84H494.259V222.186H583.513V216.84Z" fill="#A5A5A5"/>
<path d="M578.886 139.427H578.866C574.548 139.427 571.047 142.928 571.047 147.246V156.701C571.047 161.019 574.548 164.52 578.866 164.52H578.886C583.204 164.52 586.704 161.019 586.704 156.701V147.246C586.704 142.928 583.204 139.427 578.886 139.427Z" fill="#7D2EFF"/>
<path d="M543.523 173.197H543.503C539.185 173.197 535.685 176.697 535.685 181.016V190.47C535.685 194.789 539.185 198.289 543.503 198.289H543.523C547.841 198.289 551.342 194.789 551.342 190.47V181.016C551.342 176.697 547.841 173.197 543.523 173.197Z" fill="#7FC1FF"/>
<path d="M519.59 206.986H519.57C515.252 206.986 511.751 210.487 511.751 214.805V224.26C511.751 228.578 515.252 232.079 519.57 232.079H519.59C523.908 232.079 527.408 228.578 527.408 224.26V214.805C527.408 210.487 523.908 206.986 519.59 206.986Z" fill="#FFC553"/>
<path d="M426.147 269.419H262.657V306.68H426.147V269.419Z" fill="#F5E4FF"/>
<path d="M426.146 269.419H370.4V306.68H426.146V269.419Z" fill="#FF1472"/>
<path d="M247.479 233.316C247.479 233.316 256.015 236.108 257.83 223.542L243.33 226.953L247.479 233.316Z" fill="#B17565"/>
<path opacity="0.08" d="M425.449 242.212H350.994V251.268H425.449V242.212Z" fill="black"/>
<defs>
<filter id="filter0_d" x="452.02" y="275.769" width="156.679" height="113.803" filterUnits="userSpaceOnUse" color-interpolation-filters="sRGB">
<feFlood flood-opacity="0" result="BackgroundImageFix"/>
<feColorMatrix in="SourceAlpha" type="matrix" values="0 0 0 0 0 0 0 0 0 0 0 0 0 0 0 0 0 0 127 0"/>
<feOffset/>
<feGaussianBlur stdDeviation="10"/>
<feColorMatrix type="matrix" values="0 0 0 0 0 0 0 0 0 0 0 0 0 0 0 0 0 0 0.12 0"/>
<feBlend mode="normal" in2="BackgroundImageFix" result="effect1_dropShadow"/>
<feBlend mode="normal" in="SourceGraphic" in2="effect1_dropShadow" result="shape"/>
</filter>
<filter id="filter1_d" x="448.091" y="92.5989" width="184.861" height="188.762" filterUnits="userSpaceOnUse" color-interpolation-filters="sRGB">
<feFlood flood-opacity="0" result="BackgroundImageFix"/>
<feColorMatrix in="SourceAlpha" type="matrix" values="0 0 0 0 0 0 0 0 0 0 0 0 0 0 0 0 0 0 127 0"/>
<feOffset/>
<feGaussianBlur stdDeviation="10"/>
<feColorMatrix type="matrix" values="0 0 0 0 0 0 0 0 0 0 0 0 0 0 0 0 0 0 0.12 0"/>
<feBlend mode="normal" in2="BackgroundImageFix" result="effect1_dropShadow"/>
<feBlend mode="normal" in="SourceGraphic" in2="effect1_dropShadow" result="shape"/>
</filter>
</defs>
</svg>
