<svg width="522" height="408" viewBox="0 0 522 408" fill="none" xmlns="http://www.w3.org/2000/svg">
<path d="M381.06 211.146C381.06 211.146 400.413 207.898 399.108 220.172H381.06V211.146Z" fill="#F4A28C"/>
<path d="M338.099 188.816L332.253 218.251H365.087L360.611 184.417L338.099 188.816Z" fill="#C9C9C9"/>
<path d="M414.05 93.7981H283.798V185.541H414.05V93.7981Z" fill="#002233"/>
<path d="M370.542 154.454H329.565V158.447H370.542V154.454Z" fill="#FFFAE8"/>
<path d="M388.799 164.929H347.822V168.922H388.799V164.929Z" fill="#D53867"/>
<path d="M414.05 177.651H283.798V195.014H414.05V177.651Z" fill="#E6E6E6"/>
<path d="M354.086 144.805H319.699V148.798H354.086V144.805Z" fill="#FFFAE8"/>
<path d="M395.624 144.805H361.237V148.798H395.624V144.805Z" fill="#FFFAE8"/>
<path d="M360.311 133.694H329.565V137.687H360.311V133.694Z" fill="#D53867"/>
<path d="M399.056 133.694H368.31V137.687H399.056V133.694Z" fill="#D53867"/>
<path d="M322.361 154.454H306.949V158.447H322.361V154.454Z" fill="white"/>
<path d="M337.708 164.929H322.296V168.922H337.708V164.929Z" fill="white"/>
<path d="M312.495 144.805H297.083V148.798H312.495V144.805Z" fill="white"/>
<path opacity="0.14" d="M300.815 126.007C300.815 126.007 364.447 119.376 350.405 195.027L355.247 213.473L335.385 202.295L336.977 195.041H326.459L300.815 126.007Z" fill="black"/>
<path d="M300.815 104.692C301.817 104.692 302.629 103.85 302.629 102.811C302.629 101.772 301.817 100.93 300.815 100.93C299.814 100.93 299.001 101.772 299.001 102.811C299.001 103.85 299.814 104.692 300.815 104.692Z" fill="#FFFAE8"/>
<path d="M305.905 104.692C306.907 104.692 307.719 103.85 307.719 102.811C307.719 101.772 306.907 100.93 305.905 100.93C304.903 100.93 304.091 101.772 304.091 102.811C304.091 103.85 304.903 104.692 305.905 104.692Z" fill="#D53867"/>
<path d="M312.495 114.45H297.083V118.442H312.495V114.45Z" fill="white"/>
<path d="M322.361 124.438H306.949V128.43H322.361V124.438Z" fill="white"/>
<path d="M360.311 124.438H329.565V128.43H360.311V124.438Z" fill="#D53867"/>
<path d="M399.056 124.438H368.31V128.43H399.056V124.438Z" fill="#D53867"/>
<path d="M322.361 133.694H306.949V137.687H322.361V133.694Z" fill="white"/>
<path d="M350.405 114.45H318.655V118.442H350.405V114.45Z" fill="#FFFAE8"/>
<path d="M379.585 114.45H357.048V118.442H379.585V114.45Z" fill="#FFFAE8"/>
<path d="M350.406 190.737C353.079 190.737 355.247 188.489 355.247 185.716C355.247 182.944 353.079 180.696 350.406 180.696C347.732 180.696 345.564 182.944 345.564 185.716C345.564 188.489 347.732 190.737 350.406 190.737Z" fill="#A5A5A5"/>
<path d="M166.14 213.514H100.668V218.251H166.14V213.514Z" fill="#C9C9C9"/>
<path d="M126.768 211.146C126.768 211.146 107.415 207.898 108.72 220.172H126.768V211.146Z" fill="#F4A28C"/>
<path d="M162.759 188.816L156.913 218.251H189.747L185.271 184.417L162.759 188.816Z" fill="#C9C9C9"/>
<path d="M233.256 93.7981H103.004V185.541H233.256V93.7981Z" fill="#002233"/>
<path d="M189.747 154.454H148.77V158.447H189.747V154.454Z" fill="#FFFAE8"/>
<path d="M233.256 177.651H103.004V195.014H233.256V177.651Z" fill="#E6E6E6"/>
<path d="M173.291 144.805H138.904V148.798H173.291V144.805Z" fill="#FFFAE8"/>
<path d="M179.516 133.694H148.77V137.687H179.516V133.694Z" fill="#D53867"/>
<path d="M141.566 154.454H126.154V158.447H141.566V154.454Z" fill="white"/>
<path d="M156.913 164.929H141.501V168.922H156.913V164.929Z" fill="white"/>
<path d="M131.701 144.805H116.289V148.798H131.701V144.805Z" fill="white"/>
<path d="M114.631 104.692C115.633 104.692 116.445 103.85 116.445 102.811C116.445 101.772 115.633 100.93 114.631 100.93C113.629 100.93 112.817 101.772 112.817 102.811C112.817 103.85 113.629 104.692 114.631 104.692Z" fill="white"/>
<path d="M120.021 104.692C121.023 104.692 121.835 103.85 121.835 102.811C121.835 101.772 121.023 100.93 120.021 100.93C119.019 100.93 118.207 101.772 118.207 102.811C118.207 103.85 119.019 104.692 120.021 104.692Z" fill="#FFFAE8"/>
<path d="M125.11 104.692C126.112 104.692 126.924 103.85 126.924 102.811C126.924 101.772 126.112 100.93 125.11 100.93C124.109 100.93 123.296 101.772 123.296 102.811C123.296 103.85 124.109 104.692 125.11 104.692Z" fill="#D53867"/>
<path d="M131.701 114.45H116.289V118.442H131.701V114.45Z" fill="white"/>
<path d="M141.566 124.438H126.154V128.43H141.566V124.438Z" fill="white"/>
<path d="M179.516 124.438H148.77V128.43H179.516V124.438Z" fill="#D53867"/>
<path d="M141.566 133.694H126.154V137.687H141.566V133.694Z" fill="white"/>
<path d="M169.611 114.45H137.86V118.442H169.611V114.45Z" fill="#FFFAE8"/>
<path opacity="0.45" d="M255.858 357.048C372.257 357.048 466.616 344.367 466.616 328.723C466.616 313.08 372.257 300.398 255.858 300.398C139.46 300.398 45.1008 313.08 45.1008 328.723C45.1008 344.367 139.46 357.048 255.858 357.048Z" fill="#F4F4F4" fill-opacity="0.8"/>
<path d="M223.964 122.989C223.964 122.989 178.537 126.224 175.053 152.384C173.121 166.919 176.958 180.06 180.755 188.924C181.334 190.271 181.602 191.739 181.537 193.212C181.473 194.684 181.077 196.121 180.383 197.408C179.689 198.694 178.714 199.795 177.537 200.622C176.36 201.45 175.014 201.981 173.604 202.173L126.768 208.94V220.24L191.939 218.237C198.551 218.035 204.861 215.322 209.672 210.615C214.483 205.908 217.46 199.533 218.039 192.7L223.964 122.989Z" fill="#FA7268"/>
<path d="M283.798 122.989C283.798 122.989 329.225 126.224 332.71 152.384C334.641 166.919 330.804 180.06 327.007 188.924C326.428 190.271 326.16 191.739 326.225 193.212C326.29 194.684 326.685 196.121 327.379 197.408C328.074 198.694 329.048 199.795 330.225 200.622C331.402 201.45 332.749 201.981 334.158 202.173L380.995 208.94V220.24L315.81 218.169C309.199 217.964 302.891 215.251 298.08 210.544C293.27 205.837 290.292 199.464 289.71 192.632L283.798 122.989Z" fill="#68E1FD"/>
<path d="M283.798 122.989C283.798 122.989 329.225 126.224 332.71 152.384C334.641 166.919 330.804 180.06 327.007 188.924C326.428 190.271 326.16 191.739 326.225 193.212C326.29 194.684 326.685 196.121 327.379 197.408C328.074 198.694 329.048 199.795 330.225 200.622C331.402 201.45 332.749 201.981 334.158 202.173L380.995 208.94V220.24L315.81 218.169C309.199 217.964 302.891 215.251 298.08 210.544C293.27 205.837 290.292 199.464 289.71 192.632L283.798 122.989Z" fill="#FA7268"/>
<path d="M425.834 228.698H83.272V328.737H425.834V228.698Z" fill="#C9C9C9"/>
<path d="M425.834 218.251H83.272V242.705H425.834V218.251Z" fill="#A5A5A5"/>
<path d="M249.686 122.989L255.232 97.9122C255.232 97.9122 255.414 86.1653 262.683 88.899C269.952 91.6327 272.132 105.247 268.217 109.849C264.302 114.45 261.692 108.17 261.692 108.17V122.042L249.686 122.989Z" fill="#F4A28C"/>
<path opacity="0.1" d="M345.564 219.09C345.564 219.09 315.458 225.735 328.038 238.334C340.618 250.934 333.675 268.649 324.958 273.764C316.241 278.88 280.131 285.051 291.668 328.209H250.965L247.963 305.202L221.863 276.62L233.269 249.052L265.359 203.811L287.1 222.5L299.002 218.251L345.564 219.09Z" fill="black"/>
<path d="M242.443 121.839C242.443 121.839 197.159 117.657 191.248 149.366C185.336 181.075 227.475 240.919 227.475 240.919L286.2 238.551C286.2 238.551 377.432 105.653 242.443 121.839Z" fill="#EF5F67"/>
<path d="M247.95 305.162C247.95 305.162 250.56 308.734 248.85 312.118C247.141 315.501 249.607 318.37 252.191 316.015C254.775 313.661 255.845 303.835 255.845 303.835L250.012 300.303L247.95 305.162Z" fill="#68E1FD"/>
<path d="M227.475 240.919C227.475 240.919 223.56 262.234 232.368 263.249C241.177 264.264 303.491 267.147 313.931 258.093C324.371 249.039 321.761 236.521 286.2 238.551L227.475 240.919Z" fill="#413F44"/>
<path d="M226.966 244.6C226.966 244.6 199.743 266.659 213.772 282.899C227.801 299.139 248.028 308.613 248.028 308.613L250.965 300.831C250.965 300.831 208.552 266.659 248.681 259.893L226.966 244.6Z" fill="#413F44"/>
<path d="M261.809 172.806H245.797C229.307 172.806 215.938 186.669 215.938 203.77C215.938 220.871 229.307 234.734 245.797 234.734H261.809C278.3 234.734 291.668 220.871 291.668 203.77C291.668 186.669 278.3 172.806 261.809 172.806Z" fill="black"/>
<path d="M260.922 203.77H246.019V265.793H260.922V203.77Z" fill="black"/>
<path opacity="0.08" d="M260.922 203.77H246.019V265.793H260.922V203.77Z" fill="white"/>
<path d="M283.798 258.093H223.964V276.62H283.798V258.093Z" fill="black"/>
<path d="M251.395 106.127L251.487 100.186C251.526 98.8184 251.298 97.457 250.819 96.1827C250.339 94.9085 249.616 93.7476 248.694 92.7695C248.314 92.4628 247.997 92.0813 247.76 91.6469C247.522 91.2126 247.37 90.7339 247.312 90.2385C247.254 89.743 247.291 89.2405 247.42 88.7598C247.55 88.2791 247.77 87.8297 248.067 87.4374C251.069 82.9849 253.601 85.8675 256.628 81.9293C259.656 77.9911 261.94 77.2197 265.476 81.9293C269.013 86.6389 271.792 81.1444 273.815 86.9096C275.838 92.6748 274.063 95.5574 266.233 96.0852C259.578 96.5318 261.639 104.354 255.467 108.468C255.068 108.749 254.601 108.909 254.119 108.931C253.638 108.953 253.159 108.837 252.738 108.594C252.316 108.352 251.967 107.993 251.73 107.557C251.493 107.122 251.377 106.627 251.395 106.127Z" fill="#002233"/>
<path d="M258.233 276.606H248.733V319.412H258.233V276.606Z" fill="black"/>
<path opacity="0.08" d="M258.233 276.606H248.733V319.412H258.233V276.606Z" fill="black"/>
<path d="M248.733 319.412L230.359 337.006H278.043L258.22 319.412H248.733Z" fill="black"/>
<path d="M408.648 251.407H373.413V314.676H408.648V251.407Z" fill="#A5A5A5"/>
<path d="M365.152 242.705H356.891V328.737H365.152V242.705Z" fill="#E6E6E6"/>
<path d="M425.835 242.705H417.574V328.737H425.835V242.705Z" fill="#E6E6E6"/>
<path d="M425.848 314.676H364.343V328.723H425.848V314.676Z" fill="#E6E6E6"/>
<path d="M100.668 242.705H83.272V328.737H100.668V242.705Z" fill="#E6E6E6"/>
<path opacity="0.42" d="M150.258 304.404H100.668V314.676H150.258V304.404Z" fill="#A5A5A5"/>
<path d="M175.366 314.27H100.668V328.723H175.366V314.27Z" fill="#A5A5A5"/>
<path d="M198.791 114.45H176.253V118.442H198.791V114.45Z" fill="#FFFAE8"/>
<path d="M172.978 190.737C175.652 190.737 177.819 188.489 177.819 185.716C177.819 182.944 175.652 180.696 172.978 180.696C170.304 180.696 168.136 182.944 168.136 185.716C168.136 188.489 170.304 190.737 172.978 190.737Z" fill="#A5A5A5"/>
<path d="M295.426 104.692C296.428 104.692 297.24 103.85 297.24 102.811C297.24 101.772 296.428 100.93 295.426 100.93C294.424 100.93 293.612 101.772 293.612 102.811C293.612 103.85 294.424 104.692 295.426 104.692Z" fill="white"/>
<path d="M437.058 73.4033H386.489V109.456H437.058V73.4033Z" fill="#D53867"/>
<path d="M404.981 98.5077C404.72 98.5089 404.467 98.4182 404.263 98.2505L396.72 92.0387C396.583 91.9247 396.472 91.7806 396.396 91.6167C396.319 91.4529 396.278 91.2735 396.276 91.0914C396.276 90.9083 396.314 90.7272 396.388 90.5611C396.463 90.395 396.571 90.248 396.707 90.1305L404.289 83.8105C404.532 83.6194 404.838 83.5341 405.141 83.5725C405.444 83.611 405.72 83.7702 405.912 84.0165C406.104 84.2628 406.195 84.5768 406.168 84.892C406.14 85.2072 405.995 85.4988 405.764 85.7051L399.317 91.1185L405.751 96.383C405.873 96.4808 405.974 96.6028 406.05 96.7419C406.126 96.8809 406.175 97.0343 406.193 97.193C406.211 97.3517 406.199 97.5126 406.157 97.6663C406.114 97.82 406.043 97.9634 405.946 98.0881C405.829 98.2324 405.68 98.3457 405.512 98.4187C405.344 98.4916 405.162 98.5221 404.981 98.5077V98.5077Z" fill="white"/>
<path d="M418.709 98.5077C418.533 98.5087 418.359 98.4678 418.201 98.388C418.042 98.3082 417.904 98.1917 417.796 98.0475C417.699 97.9228 417.628 97.7794 417.586 97.6257C417.543 97.472 417.531 97.3111 417.549 97.1524C417.567 96.9937 417.616 96.8403 417.692 96.7013C417.768 96.5622 417.87 96.4402 417.991 96.3423L424.412 91.0779L417.978 85.6645C417.842 85.5711 417.727 85.4493 417.639 85.307C417.551 85.1646 417.492 85.0048 417.467 84.8378C417.442 84.6708 417.451 84.5001 417.493 84.3367C417.534 84.1733 417.609 84.0207 417.71 83.8887C417.812 83.7567 417.94 83.6481 418.084 83.5698C418.229 83.4916 418.387 83.4454 418.55 83.4342C418.713 83.4231 418.876 83.4471 419.029 83.5049C419.182 83.5627 419.322 83.6529 419.44 83.7699L427.035 90.0899C427.171 90.2074 427.279 90.3544 427.354 90.5205C427.428 90.6866 427.466 90.8677 427.466 91.0508C427.464 91.2329 427.423 91.4123 427.346 91.5761C427.27 91.74 427.159 91.8841 427.022 91.9981L419.44 98.2099C419.236 98.3932 418.978 98.4983 418.709 98.5077V98.5077Z" fill="white"/>
<path d="M408.674 98.5077C408.503 98.5108 408.333 98.4738 408.178 98.3994C407.896 98.264 407.678 98.0187 407.57 97.7169C407.463 97.4152 407.475 97.0816 407.604 96.7889L413.124 84.2435C413.188 84.0978 413.279 83.9666 413.392 83.8575C413.506 83.7483 413.638 83.6634 413.783 83.6075C413.928 83.5516 414.082 83.5258 414.236 83.5316C414.391 83.5374 414.543 83.5747 414.683 83.6413C414.824 83.7079 414.95 83.8026 415.055 83.92C415.161 84.0373 415.243 84.175 415.297 84.3252C415.35 84.4754 415.375 84.6351 415.37 84.7952C415.364 84.9554 415.328 85.1128 415.264 85.2585L409.77 97.8039C409.676 98.0215 409.521 98.2049 409.326 98.3304C409.131 98.4558 408.903 98.5176 408.674 98.5077V98.5077Z" fill="white"/>
<path opacity="0.58" d="M122.67 289.084C122.67 289.084 110.651 285.674 108.028 274.076C108.028 274.076 126.663 270.178 127.185 290.113L122.67 289.084Z" fill="#E34C67"/>
<path opacity="0.73" d="M124.079 287.907C124.079 287.907 115.675 274.13 123.074 261.26C123.074 261.26 137.234 270.584 130.904 287.934L124.079 287.907Z" fill="#E34C67"/>
<path opacity="0.8" d="M126.246 287.907C126.246 287.907 130.683 273.372 144.098 270.611C144.098 270.611 146.604 280.084 135.407 287.947L126.246 287.907Z" fill="#E34C67"/>
<path d="M117.528 287.528L119.956 304.823L135.302 304.891L137.573 287.622L117.528 287.528Z" fill="#002233"/>
<path d="M396.994 270.57C399.488 270.57 401.509 268.474 401.509 265.888C401.509 263.302 399.488 261.205 396.994 261.205C394.5 261.205 392.479 263.302 392.479 265.888C392.479 268.474 394.5 270.57 396.994 270.57Z" fill="white"/>
<path opacity="0.18" d="M404.002 276.606H379.429V308.586H404.002V276.606Z" fill="white"/>
</svg>
