<svg width="80" height="80" viewBox="0 0 80 80" fill="none" xmlns="http://www.w3.org/2000/svg">
<path d="M22.824 68.13V75.466C22.824 76.278 22.5907 76.922 22.124 77.398C21.6667 77.8647 21.0227 78.098 20.192 78.098C19.296 78.098 18.5913 77.8367 18.078 77.314C17.574 76.782 17.322 76.04 17.322 75.088H18.596C18.596 75.6573 18.722 76.11 18.974 76.446C19.226 76.7727 19.6133 76.936 20.136 76.936C20.6307 76.936 20.99 76.796 21.214 76.516C21.438 76.236 21.55 75.886 21.55 75.466V68.13H22.824ZM31.8733 73.73C31.8733 74.0007 31.8546 74.234 31.8173 74.43H25.6713C25.6993 75.3073 25.9466 75.9653 26.4133 76.404C26.8893 76.8427 27.4679 77.062 28.1493 77.062C28.7653 77.062 29.2786 76.908 29.6893 76.6C30.1093 76.2827 30.3659 75.8627 30.4593 75.34H31.8173C31.7239 75.872 31.5139 76.348 31.1873 76.768C30.8699 77.188 30.4546 77.5147 29.9413 77.748C29.4279 77.9813 28.8493 78.098 28.2053 78.098C27.4679 78.098 26.8146 77.9393 26.2453 77.622C25.6759 77.3047 25.2279 76.852 24.9013 76.264C24.5839 75.6667 24.4253 74.9667 24.4253 74.164C24.4253 73.3613 24.5839 72.6613 24.9013 72.064C25.2279 71.4667 25.6759 71.0093 26.2453 70.692C26.8146 70.3747 27.4679 70.216 28.2053 70.216C28.9519 70.216 29.6006 70.3747 30.1513 70.692C30.7113 71.0093 31.1359 71.434 31.4253 71.966C31.7239 72.498 31.8733 73.086 31.8733 73.73ZM30.5853 73.814C30.6133 73.2447 30.5199 72.7687 30.3053 72.386C30.0906 72.0033 29.7966 71.7187 29.4233 71.532C29.0499 71.3453 28.6439 71.252 28.2053 71.252C27.5053 71.252 26.9173 71.4713 26.4413 71.91C25.9653 72.3393 25.7086 72.974 25.6713 73.814H30.5853ZM37.5856 70.188C38.4816 70.188 39.2049 70.4773 39.7556 71.056C40.3062 71.6253 40.5816 72.4513 40.5816 73.534V78H39.3076V73.646C39.3076 72.8807 39.1116 72.2927 38.7196 71.882C38.3276 71.4713 37.7956 71.266 37.1236 71.266C36.4236 71.266 35.8636 71.4947 35.4436 71.952C35.0236 72.4 34.8136 73.058 34.8136 73.926V78H33.5396V70.314H34.8136V72.134C35.0096 71.5087 35.3549 71.028 35.8496 70.692C36.3536 70.356 36.9322 70.188 37.5856 70.188ZM46.7497 78L43.8097 74.542V78H42.5357V67.64H43.8097V73.66L46.7077 70.314H48.2617L44.8177 74.136L48.3457 78H46.7497ZM49.2433 68.06C49.2433 67.8267 49.3226 67.64 49.4813 67.5C49.64 67.3507 49.85 67.276 50.1113 67.276C50.3726 67.276 50.5826 67.3507 50.7413 67.5C50.9 67.64 50.9793 67.8267 50.9793 68.06C50.9793 68.2933 50.9 68.4847 50.7413 68.634C50.5826 68.774 50.3726 68.844 50.1113 68.844C49.85 68.844 49.64 68.774 49.4813 68.634C49.3226 68.4847 49.2433 68.2933 49.2433 68.06ZM50.7413 70.314V78H49.4673V70.314H50.7413ZM56.8356 70.188C57.7316 70.188 58.4549 70.4773 59.0056 71.056C59.5562 71.6253 59.8316 72.4513 59.8316 73.534V78H58.5576V73.646C58.5576 72.8807 58.3616 72.2927 57.9696 71.882C57.5776 71.4713 57.0456 71.266 56.3736 71.266C55.6736 71.266 55.1136 71.4947 54.6936 71.952C54.2736 72.4 54.0636 73.058 54.0636 73.926V78H52.7896V70.314H54.0636V72.134C54.2596 71.5087 54.6049 71.028 55.0996 70.692C55.6036 70.356 56.1822 70.188 56.8356 70.188ZM64.1937 70.216C65.0617 70.216 65.757 70.4447 66.2797 70.902C66.8117 71.35 67.1337 71.9567 67.2457 72.722H66.0277C65.9717 72.2647 65.7803 71.8913 65.4537 71.602C65.1363 71.3033 64.707 71.154 64.1657 71.154C63.7083 71.154 63.349 71.266 63.0877 71.49C62.8357 71.7047 62.7097 71.9987 62.7097 72.372C62.7097 72.652 62.7937 72.8807 62.9617 73.058C63.139 73.226 63.3537 73.3567 63.6057 73.45C63.867 73.534 64.2217 73.6273 64.6697 73.73C65.239 73.8607 65.6963 73.996 66.0417 74.136C66.3963 74.2667 66.695 74.4813 66.9377 74.78C67.1897 75.0787 67.3157 75.48 67.3157 75.984C67.3157 76.6093 67.0777 77.118 66.6017 77.51C66.135 77.902 65.5097 78.098 64.7257 78.098C63.811 78.098 63.0643 77.8787 62.4857 77.44C61.907 77.0013 61.5663 76.39 61.4637 75.606H62.6957C62.7423 76.0727 62.943 76.4507 63.2977 76.74C63.6617 77.0293 64.1377 77.174 64.7257 77.174C65.1643 77.174 65.505 77.062 65.7477 76.838C65.9997 76.614 66.1257 76.32 66.1257 75.956C66.1257 75.6573 66.037 75.4193 65.8597 75.242C65.6823 75.0647 65.463 74.9293 65.2017 74.836C64.9403 74.7427 64.581 74.6447 64.1237 74.542C63.5543 74.4113 63.097 74.2807 62.7517 74.15C62.4157 74.0193 62.1263 73.814 61.8837 73.534C61.6503 73.2447 61.5337 72.8573 61.5337 72.372C61.5337 71.728 61.7717 71.21 62.2477 70.818C62.7237 70.4167 63.3723 70.216 64.1937 70.216Z" fill="black"/>
<path d="M40.327 65.9896C39.1396 65.877 37.7 65.6266 36.9863 65.4013L36.5864 65.2761L36.2049 64.1933C35.9958 63.605 35.5897 62.3157 35.3005 61.333C35.0114 60.3504 34.7161 59.3364 34.6422 59.0798L34.5007 58.6104L34.0455 58.6292C33.2026 58.6667 31.9783 58.4477 31.0062 58.0846C30.2864 57.8155 29.6588 57.5339 28.453 56.9268C27.8624 56.6326 27.0502 56.2571 26.6565 56.1006C25.2476 55.5373 25.2045 55.4684 25.1246 53.4593C25.1 52.677 25.0569 51.807 25.0323 51.5253L24.9892 51.0058L24.3924 50.4425C23.6726 49.7666 22.6083 48.5774 21.9192 47.6824C18.9476 43.8019 17.2065 38.9637 17.0219 34.0943C16.8927 30.6832 17.3295 27.7791 18.4616 24.6184C19.6736 21.2073 21.9007 17.8275 24.5401 15.3928L25.2968 14.698L25.3337 14.1535C25.4137 13.0269 25.7275 11.8377 26.1212 11.1555C26.3858 10.6986 26.9272 10.1478 27.3025 9.94752C27.5547 9.80982 27.604 9.75349 27.6839 9.4781C27.8193 9.00243 28.2192 8.20755 28.5391 7.77568C29.0498 7.08721 30.0526 6.26103 31.1908 5.58507C32.3043 4.92789 33.8301 4.07668 34.3285 3.83884C35.2575 3.3882 37.6569 2.51196 37.7307 2.59332C37.7492 2.6121 37.7922 2.59958 37.8292 2.56829C38.0322 2.3993 39.9086 2.13642 41.2499 2.08635C44.2584 1.97369 47.2422 2.69346 49.1002 3.97028C50.4107 4.88408 52.3056 6.83685 53.2777 8.28891C54.2621 9.75349 54.8958 12.0693 55.1911 15.2363L55.228 15.6744L55.9478 16.4317C56.6553 17.1703 57.529 18.2405 58.1503 19.1293C58.5749 19.7302 59.3377 20.9694 59.3377 21.0633C59.3377 21.1071 59.3624 21.1509 59.387 21.1635C59.51 21.2073 60.7097 23.6983 60.7774 24.03C60.7897 24.0801 60.8512 24.2553 60.9189 24.4118C60.9927 24.5683 61.1588 25.0502 61.2942 25.4758C62.6785 29.8007 62.8446 34.4448 61.7679 38.8135C61.3619 40.4659 60.8574 41.8741 60.1252 43.4326C59.8976 43.927 59.6823 44.3526 59.6577 44.3714C59.6331 44.3902 59.5408 44.5529 59.4485 44.7282L59.2762 45.0599L59.5285 45.1851C60.1622 45.5168 60.5805 46.2241 61.165 47.9703C61.651 49.4161 61.8048 50.067 61.8417 50.7868C61.9156 52.3014 61.4049 53.9225 60.6051 54.7361C60.2852 55.0553 60.1683 55.1305 59.7992 55.2431C59.5654 55.3182 59.1778 55.4121 58.9378 55.4497C58.3165 55.5561 56.9322 55.5373 56.157 55.4184C55.431 55.2994 55.2772 55.2118 55.0557 54.78L54.9388 54.5609L54.0775 54.5984C53.2223 54.6297 52.7917 54.7111 52.1334 54.9552L51.7827 55.0866L51.7458 55.3996C51.6904 55.7939 51.4935 56.013 51.0444 56.1757C50.7614 56.2758 50.7183 56.3196 50.6876 56.5011C50.6014 56.958 50.7122 57.9845 50.9583 59.1111C51.2782 60.5319 51.3274 61.0639 51.192 61.5396C51.0136 62.1592 50.5337 62.4909 49.4325 62.7413L48.848 62.8727L48.8295 63.0918C48.8172 63.2107 48.8357 63.5674 48.8726 63.8929C48.9403 64.4687 48.9403 64.4812 48.7865 64.7504C48.2389 65.7017 46.9961 65.9646 42.8802 65.9959C41.6313 66.0021 40.4808 66.0021 40.327 65.9896V65.9896ZM43.9138 64.7691C44.0738 64.7316 44.3322 64.7128 44.4798 64.7316C44.6336 64.7441 44.7567 64.7379 44.7567 64.7066C44.7567 64.6753 44.8736 64.6502 45.0212 64.6502C45.6549 64.6502 47.759 64.1933 47.8144 64.0431C47.8329 63.9993 47.8021 63.6676 47.7467 63.3171C47.5929 62.3282 47.5314 61.4957 47.433 58.8608C47.3837 57.5213 47.2976 55.9441 47.2484 55.3558C47.1992 54.7737 47.1007 53.234 47.0331 51.9447C46.8916 49.2346 46.8177 48.5211 46.6701 48.4772C46.6147 48.4585 46.2948 48.4021 45.9564 48.3521C43.354 47.9515 39.4103 48.1142 35.4359 48.7839C34.1624 48.9967 34.2546 48.9654 34.2239 49.2283C34.2116 49.3472 34.2177 49.4599 34.2362 49.4724C34.2916 49.51 34.4392 50.9182 34.3961 50.9933C34.3777 51.0309 34.3838 51.0684 34.4208 51.081C34.4515 51.0872 34.4946 51.2812 34.5069 51.5066C34.5192 51.7319 34.5561 51.9635 34.5746 52.026C34.5992 52.0824 34.6053 52.2013 34.593 52.2889C34.5746 52.3703 34.5807 52.4516 34.5992 52.4579C34.6607 52.4829 34.9252 54.3168 34.8822 54.3856C34.8637 54.4232 34.876 54.4482 34.9068 54.4482C34.9437 54.4482 34.9745 54.5108 34.9745 54.5859C34.9745 54.7549 35.2882 56.4448 35.5343 57.5965C35.6328 58.0721 35.7004 58.4852 35.682 58.5228C35.6574 58.5541 35.6697 58.5791 35.7004 58.5791C35.7312 58.5791 35.8173 58.867 35.8973 59.2238C36.0696 60.0124 36.6233 62.034 36.9494 63.098L37.1955 63.8992L37.5154 63.993C38.0445 64.1495 39.1581 64.3936 39.6995 64.475C39.9763 64.5188 40.204 64.5626 40.204 64.5876C40.204 64.6064 40.407 64.6252 40.6469 64.6314C40.893 64.644 41.1391 64.669 41.1883 64.6878C41.2376 64.7128 41.496 64.7253 41.7544 64.7191C42.0127 64.7066 42.265 64.7253 42.3081 64.7504C42.3511 64.7817 42.5849 64.7942 42.8187 64.7879C43.0586 64.7817 43.2924 64.8004 43.3417 64.8317C43.3909 64.8693 43.477 64.8881 43.5262 64.8693C43.5754 64.8568 43.7539 64.813 43.9138 64.7691V64.7691ZM48.7926 61.646C49.0633 61.6084 49.4817 61.5145 49.7155 61.4332L50.14 61.2892L50.1338 60.6383C50.1277 59.9936 50.06 59.4929 49.7709 58.0784C49.6909 57.6841 49.5986 57.1521 49.5555 56.908L49.4817 56.4511H49.2541C49.131 56.4511 48.8665 56.4949 48.6757 56.545C48.4789 56.595 48.2328 56.6388 48.1282 56.6388H47.9375L47.9744 57.8781C48.0359 59.9686 48.1528 61.7085 48.2266 61.7085C48.2697 61.7085 48.5219 61.6773 48.7926 61.646V61.646ZM34.6669 57.1458C34.6669 57.0519 34.5561 56.1632 34.4208 55.168C34.0885 52.7458 33.8732 50.912 33.824 50.2047C33.8055 49.8855 33.7625 49.6101 33.7317 49.5913C33.7071 49.5726 33.6825 49.4536 33.6825 49.3159C33.6825 49.0781 33.6763 49.0781 33.3626 49.003C33.1288 48.9404 32.735 48.9342 31.9168 48.9654C30.8524 49.003 30.7909 49.003 30.7909 48.8966C30.7909 48.6963 30.9754 48.5085 31.24 48.4334C31.8245 48.277 32.0275 48.1768 32.089 48.0204C32.1628 47.8201 32.1013 47.5697 31.9291 47.3757C31.8552 47.2881 31.7568 47.1566 31.7199 47.0815C31.6399 46.925 31.6276 46.6872 31.7014 46.6872C31.7322 46.6872 32.009 46.8499 32.3167 47.0565C32.9996 47.5009 33.2334 47.6073 33.3256 47.5134C33.4241 47.4132 33.5533 46.7748 33.5963 46.1865C33.621 45.8736 33.5902 45.1851 33.5348 44.5279C33.3749 42.694 33.4179 41.8929 33.6886 41.6425C33.8301 41.5111 33.9901 41.5674 33.9901 41.7615C33.9901 41.8428 34.0209 41.9367 34.0578 41.9743C34.1193 42.0369 34.0393 43.8519 33.9532 44.2462C33.9347 44.3276 33.9224 44.9535 33.9224 45.6357C33.9286 46.8186 33.9716 47.2568 34.1254 47.6448L34.1931 47.8201L34.6915 47.7825C34.9683 47.7637 35.6451 47.6886 36.2049 47.626C36.7648 47.5572 37.3985 47.4883 37.62 47.4758C37.8415 47.4571 38.4198 47.4007 38.912 47.3506C39.4042 47.3006 39.8471 47.263 39.8963 47.263C39.9456 47.263 40.407 47.2317 40.9115 47.1942C41.6436 47.1378 44.1968 47.0002 44.5598 47.0002C44.7259 47.0002 44.6213 46.8312 44.406 46.7561C43.5078 46.4306 40.3455 44.8721 39.8041 44.4966C39.2565 44.1148 39.238 43.6955 39.7364 43.007C40.0686 42.5563 40.204 42.2935 40.204 42.1182C40.204 41.9617 40.167 41.9617 39.8041 42.1245C39.1888 42.3999 38.752 42.162 38.3583 41.3484C38.0937 40.7913 37.38 38.3504 37.2447 37.543L37.1709 37.0673L35.7066 36.3287C33.3933 35.1646 32.8088 34.7452 31.7568 33.5122C31.4922 33.2056 31.1785 32.8738 31.0616 32.78L30.8462 32.6172L30.3048 32.8551C28.5022 33.6499 26.6565 34.7953 24.2878 36.5979L23.0389 37.543L23.2235 37.9561C23.3219 38.1814 23.3896 38.3629 23.3711 38.3629C23.3588 38.3629 23.3835 38.4255 23.4327 38.5068C23.8141 39.1077 24.7493 42.1558 25.223 44.3464C25.4322 45.3165 25.7583 47.1316 25.7398 47.2317C25.7336 47.2568 25.746 47.3319 25.7767 47.3945C25.8013 47.4508 25.8075 47.5697 25.7952 47.6573C25.7767 47.7387 25.7829 47.8201 25.8013 47.8263C25.8998 47.8701 26.2135 51.1811 26.2689 52.727C26.3243 54.1165 26.3304 54.1728 26.5519 54.2667C26.6565 54.3043 26.7734 54.3731 26.8103 54.4169C26.921 54.5233 29.142 55.7 29.9972 56.1068C31.3323 56.7327 32.9073 57.2147 33.9593 57.3085C34.1624 57.3273 34.3346 57.3461 34.3469 57.3586C34.3531 57.3649 34.4331 57.3586 34.513 57.3398C34.6299 57.3211 34.6669 57.271 34.6669 57.1458V57.1458ZM49.1249 55.4184C50.3738 55.193 50.2569 55.2744 50.2138 54.7048C50.1892 54.442 50.1338 53.6784 50.0785 53.0087C49.937 51.1623 49.8016 49.7979 49.7401 49.6602C49.7155 49.5913 49.6601 49.366 49.6232 49.1595C49.5863 48.9529 49.5248 48.6713 49.4878 48.5398L49.4202 48.2957L48.8295 48.3333C48.4973 48.3521 48.0667 48.4084 47.8698 48.4522L47.5068 48.5336L47.5499 50.1609C47.5868 51.6505 47.7221 54.2292 47.8083 55.1868C47.8452 55.5748 47.8452 55.5748 48.042 55.5748C48.1466 55.5748 48.6388 55.506 49.1249 55.4184ZM57.8612 54.6861C57.8612 54.6548 57.9535 54.636 58.0642 54.636C58.3534 54.636 59.0547 54.4733 59.3131 54.3481C60.1437 53.9475 60.7528 52.8147 60.7528 51.6693C60.7528 50.7117 59.9837 47.6511 59.5592 46.9125C59.2516 46.3743 58.5687 45.9424 58.0273 45.9361C57.7997 45.9361 57.6089 46.005 57.1352 46.2428C56.8091 46.4056 56.0832 46.706 55.5233 46.9C54.3482 47.3194 53.5853 47.6761 53.3392 47.939L53.1669 48.1205L53.2961 48.7026C53.4869 49.5413 53.6038 50.3361 53.7699 52.0386C53.856 52.8647 53.9237 53.5657 53.9237 53.597C53.9237 53.6346 54.4343 53.6346 55.2034 53.597C55.9047 53.5657 56.7661 53.5407 57.1229 53.547C57.812 53.547 58.5626 53.6721 58.4087 53.7598C58.3595 53.7848 57.8796 53.8975 57.3382 54.0101C56.7968 54.1165 56.2308 54.2667 56.077 54.3356L55.8001 54.4608L55.9847 54.5484C56.0893 54.5922 56.2308 54.6297 56.3046 54.636C56.3785 54.636 56.4523 54.6548 56.4646 54.6861C56.4831 54.7111 56.803 54.7299 57.1783 54.7299C57.5536 54.7299 57.8612 54.7111 57.8612 54.6861V54.6861ZM51.9857 54.1979C52.121 54.1791 52.4348 54.0915 52.6809 54.0101L53.1239 53.8599V53.1401C53.1239 52.4454 52.9516 50.7743 52.8101 50.1421C52.6932 49.5788 52.4963 48.9717 52.3118 48.5524L52.121 48.1268H51.4566H50.786V48.302C50.786 48.5085 50.9029 49.4098 51.1305 50.8994C51.2166 51.4815 51.272 51.9697 51.2536 51.9885C51.2351 52.0135 51.2474 52.0636 51.2843 52.1074C51.3212 52.1512 51.3643 52.3953 51.3828 52.6457C51.3951 52.896 51.4443 53.378 51.4812 53.7159C51.5366 54.2354 51.5612 54.3231 51.6412 54.2855C51.6965 54.2605 51.8503 54.2229 51.9857 54.1979V54.1979ZM24.737 48.1455C24.4478 45.8297 24.1094 44.409 23.4388 42.6502C23.0389 41.5987 22.233 39.3268 21.993 38.5819C21.8577 38.1626 21.7838 37.7808 21.7654 37.4241C21.71 36.5353 21.913 36.2724 23.1251 35.634C23.5003 35.44 24.0971 35.077 24.454 34.8266C25.1615 34.3322 26.0843 33.7626 27.6839 32.8238C29.5789 31.7097 29.8988 31.5157 30.108 31.3154C30.2987 31.1401 30.3171 31.0901 30.311 30.8147C30.3048 30.4391 30.2126 30.2075 29.8065 29.5441C29.3205 28.7492 29.0067 27.8667 28.896 27.0093L28.8529 26.6462L28.3915 26.5023C27.5363 26.2457 27.0256 25.939 26.4289 25.3381C24.7062 23.5919 24.0848 19.6738 25.2538 17.9339C25.4629 17.6209 25.4999 17.5208 25.4999 17.2454C25.4999 16.8198 25.4383 16.4568 25.3645 16.4568C25.3337 16.4568 25.02 16.7509 24.6693 17.1077C21.6977 20.1745 19.6736 24.005 18.7938 28.2172C18.4308 29.9572 18.3385 30.8898 18.3385 32.9176C18.3324 34.7953 18.3693 35.2835 18.6154 36.8295C19.1937 40.3845 20.7318 43.9583 22.9282 46.8312C23.4819 47.5572 24.7616 49.0218 24.8046 48.978C24.8231 48.9654 24.7923 48.5899 24.737 48.1455ZM48.971 46.925C49.0756 46.8938 49.6417 46.8437 50.2323 46.8124C51.5181 46.7435 52.0103 46.6309 52.2379 46.3617C52.4594 46.0864 52.5517 45.8861 53.1854 44.2775C54.4651 41.0167 55.5233 37.2676 55.5233 35.9782C55.5233 35.2272 55.3879 35.0206 54.2928 34.1256C54.0406 33.9191 53.2961 33.2243 52.6378 32.5797C51.9857 31.9413 51.4258 31.4155 51.4012 31.4155C51.3766 31.4155 51.2351 31.5344 51.0875 31.6846C50.9398 31.8286 50.5953 32.129 50.3307 32.3543C50.06 32.5797 49.8324 32.7925 49.8201 32.8363C49.7955 32.9114 49.9493 32.9114 50.0231 32.8363C50.0477 32.8112 50.2138 32.7925 50.3861 32.7925C50.6445 32.7925 50.7552 32.83 50.9521 32.974C51.2043 33.1617 51.4997 33.5248 51.4443 33.5811C51.4258 33.5999 51.4935 33.7939 51.5858 34.0067C52.0903 35.1333 52.1334 37.5304 51.6719 38.6508C51.6227 38.7635 51.5858 38.9199 51.5858 39.0013C51.5858 39.164 51.8565 39.5834 52.0903 39.7899C52.1826 39.865 52.2749 39.9902 52.2933 40.059C52.3425 40.2093 51.9611 40.904 50.2938 43.6829C48.768 46.2303 48.3251 46.9939 48.3251 47.1003C48.3251 47.1754 48.362 47.1754 48.5588 47.0878C48.6819 47.0314 48.8726 46.9626 48.971 46.925V46.925ZM46.6639 46.3179C46.6639 46.224 45.5011 43.4889 45.1258 42.7128C44.5291 41.461 43.6247 40.034 43.4709 40.0903C43.4278 40.1029 43.0402 40.3657 42.6157 40.6662C41.3606 41.5487 40.7085 42.2935 40.4193 43.176C40.3639 43.3575 40.327 43.514 40.3332 43.5202C40.4377 43.6078 42.0743 44.4778 42.7695 44.8095C43.2494 45.0411 43.6247 45.2539 43.6001 45.279C43.5754 45.3103 43.5877 45.3103 43.6247 45.2915C43.6677 45.2664 43.9692 45.3666 44.3014 45.5105C44.8613 45.7484 46.5101 46.3617 46.6209 46.368C46.6455 46.3743 46.6639 46.3492 46.6639 46.3179V46.3179ZM48.5834 45.6232C49.2048 44.7344 49.654 44.0084 50.7675 42.0932C51.4997 40.8226 51.6904 40.4471 51.6473 40.3595C51.5181 40.1216 50.9829 39.646 50.6629 39.4957C50.3799 39.358 50.2384 39.333 49.8016 39.333C49.4571 39.333 49.2171 39.3643 49.0941 39.4269L48.9095 39.5208L48.8357 40.6787C48.7065 42.7879 48.485 44.4841 48.1712 45.7108C48.0851 46.0425 48.0174 46.3305 48.0174 46.3555C48.0174 46.4181 48.0728 46.343 48.5834 45.6232V45.6232ZM54.2375 45.9299C55.5417 45.329 56.6615 44.966 57.6274 44.8408L57.9166 44.8033L58.2303 44.2462C61.811 37.8809 62.1186 29.8821 59.0301 23.304C58.0827 21.2824 57.0183 19.6488 55.4987 17.8713L55.2895 17.6209L55.2587 18.0277C55.2403 18.2468 55.1972 18.9102 55.1603 19.4923C55.0188 21.7956 54.5697 24.1677 53.8499 26.4397C53.6038 27.2095 53.493 27.4599 52.6686 29.0559C52.2441 29.8821 52.2318 30.0386 52.564 30.4579C52.8163 30.7834 52.9885 30.9461 54.9081 32.6485C56.5753 34.1319 56.7538 34.376 56.7538 35.1708C56.7476 35.4275 56.6984 35.8531 56.6369 36.1097C56.3416 37.3302 54.2251 44.0209 53.5668 45.7984C53.4623 46.0801 53.3884 46.3117 53.3946 46.3117C53.4069 46.3117 53.7822 46.1427 54.2375 45.9299V45.9299ZM47.7652 45.5168C48.0174 44.459 48.1405 43.2824 48.2328 41.2107C48.2512 40.7663 48.282 40.1842 48.3004 39.9213L48.3374 39.4519L47.9928 39.3706C47.7775 39.3205 47.4637 39.1703 47.1315 38.9512C46.4609 38.5068 46.3194 38.4818 45.7349 38.7384C45.3904 38.8824 45.2058 38.9324 44.9782 38.9199C44.689 38.9011 44.6644 38.9137 44.4491 39.1703L44.2214 39.4394L44.5475 39.9088C44.7321 40.1717 45.0335 40.6599 45.2243 40.9916C45.5626 41.605 46.4547 43.564 46.4917 43.7831C46.504 43.8519 46.5286 43.9145 46.547 43.9333C46.6024 43.9834 47.353 45.642 47.3591 45.7359C47.3591 45.7734 47.3899 45.811 47.4207 45.811C47.4576 45.811 47.4699 45.8297 47.4453 45.8485C47.4084 45.8861 47.5252 46.0551 47.5929 46.0613C47.6175 46.0613 47.6914 45.8172 47.7652 45.5168V45.5168ZM40.3578 41.0229C41.4713 40.6349 42.1235 40.2468 43.2186 39.3205C43.5754 39.0138 43.9384 38.7134 44.0307 38.6445C44.1722 38.5319 44.1968 38.4693 44.2153 38.0812L44.2337 37.6431L43.8646 37.4929C43.6616 37.4115 43.3047 37.3114 43.0648 37.2738C42.831 37.23 42.6649 37.18 42.7018 37.1612C42.7326 37.1361 42.991 37.061 43.2801 36.9859C43.9815 36.8044 44.1415 36.7105 44.1415 36.4977C44.1415 36.335 44.1168 36.3162 43.7785 36.2474C43.557 36.1973 43.2309 36.0534 42.911 35.8593C41.459 34.9706 39.2503 34.1945 38.6536 34.3635C38.0629 34.5262 37.8538 35.1771 37.8599 36.8295C37.8661 38.0875 37.9522 38.5194 38.5121 40.0653C38.9919 41.3734 38.9058 41.2608 39.4288 41.2232C39.6687 41.2107 40.0871 41.1168 40.3578 41.0229V41.0229ZM51.0444 38.5381C51.2474 38.1438 51.2966 37.762 51.2597 36.8733C51.1982 35.4462 50.8967 34.3259 50.4968 34.063C50.2446 33.894 49.7339 33.9253 49.2171 34.1507C48.9772 34.2508 48.3989 34.5888 47.9251 34.8955C47.4514 35.2084 46.9961 35.5026 46.91 35.5464C46.8239 35.5902 46.7501 35.634 46.7377 35.6403C46.7316 35.6465 46.7808 35.8406 46.8546 36.0596L46.9838 36.4727L47.3653 36.4414C47.5929 36.4226 47.8513 36.4477 48.0174 36.504L48.2943 36.5916L47.9251 36.6417C47.7221 36.6667 47.4576 36.7293 47.3284 36.7794C47.07 36.8858 47.0331 37.0047 47.0577 37.7307C47.0761 38.2815 46.9654 38.2127 48.2635 38.4568C49.0326 38.6007 49.9862 38.7071 50.6629 38.7322C50.9213 38.7384 50.9521 38.7196 51.0444 38.5381V38.5381ZM45.8887 37.8684C46.4609 37.543 46.4117 36.4226 45.8149 36.1347C45.5627 36.0158 45.1812 36.0471 44.892 36.2161C44.7505 36.2975 44.7013 36.3788 44.6767 36.5478C44.6521 36.7794 44.8367 37.8497 44.9228 37.931C45.0582 38.0625 45.6119 38.0312 45.8887 37.8684V37.8684ZM37.0847 35.4337C37.2262 34.764 37.2201 34.6201 37.054 34.5763C36.974 34.5637 36.4695 34.5074 35.9219 34.4573C35.2575 34.3947 34.8145 34.3196 34.5684 34.232C34.0147 34.0317 33.9655 34.0317 33.9409 34.3009C33.9286 34.4886 33.9593 34.5637 34.1131 34.7265C34.4823 35.102 35.4113 35.5464 36.3587 35.7967C36.9986 35.972 36.9678 35.9908 37.0847 35.4337V35.4337ZM46.6209 34.7578C47.0331 34.426 47.4084 34.1381 47.4453 34.1256C47.4883 34.1068 47.5252 34.0755 47.5252 34.0442C47.5252 33.9817 46.9777 34.0755 46.0179 34.2946C44.8244 34.5763 44.2337 34.6388 43.6985 34.545C42.8495 34.401 42.7633 34.4573 43.2801 34.8078C43.8461 35.1896 44.4245 35.3524 45.2058 35.3586H45.8641L46.6209 34.7578V34.7578ZM37.7307 33.7C38.0999 33.3182 38.752 33.1993 39.8348 33.312C40.1486 33.3433 40.2532 33.337 40.1547 33.2932C38.9858 32.78 36.3711 30.0699 35.6635 28.624C35.4605 28.2172 35.2575 27.5726 35.2944 27.4599C35.3067 27.4223 35.5774 27.7541 35.8973 28.1984C37.9399 31.0462 39.5949 32.4357 41.8959 33.2181C43.2494 33.675 44.7936 33.6124 46.5347 33.0115C47.8636 32.5609 49.5617 31.5532 50.1708 30.8647C50.5953 30.3891 51.8811 28.4363 52.2995 27.6351C53.2469 25.8075 53.8929 23.6545 54.2375 21.1822C54.3974 20.0118 54.4589 17.4707 54.3605 15.7683C54.2005 12.958 53.9791 12.1194 53.1546 11.2869C52.2256 10.3481 50.9644 10.0226 50.06 10.4858C49.9001 10.5671 49.7647 10.636 49.7585 10.636C49.697 10.636 49.7585 10.2104 49.8385 10.0351C50.1523 9.35918 51.0013 9.03998 51.9734 9.22149L52.2749 9.27782L52.1887 9.11509C52.0288 8.80214 50.5214 6.93699 50.0292 6.43628C49.3709 5.77284 48.9587 5.45989 48.2205 5.0781C46.707 4.28948 44.8551 3.7074 43.2002 3.50086C42.4373 3.40072 40.5793 3.45705 40.0071 3.58849C39.0473 3.81381 37.6077 4.5461 36.0511 5.59759C34.3223 6.768 33.2395 7.85079 32.6058 9.02746L32.3782 9.44681L32.532 10.0289C32.8396 11.1492 32.815 11.6937 32.3536 13.997C32.1013 15.2551 32.0644 15.5242 32.0583 16.269C32.0583 17.0639 32.0706 17.1828 32.3167 18.1842C32.6304 19.4923 32.6735 19.774 32.5751 19.9555C32.4459 20.2058 31.9044 20.4061 31.2585 20.4437L30.6863 20.4812L30.5448 19.8992C30.1941 18.4534 29.5358 17.7711 28.5084 17.7711C27.2779 17.7711 26.2504 18.566 25.8321 19.8366C25.6906 20.2622 25.6783 21.1384 25.8013 21.7142C25.9244 22.2775 26.2874 23.1788 26.5765 23.6232C27.1118 24.4556 27.8993 25.0377 28.6068 25.1253C29.1851 25.2004 29.4374 25.1253 29.9911 24.7185C30.434 24.393 30.8093 24.2178 30.8893 24.2992C30.957 24.368 30.9693 24.7999 30.9016 24.925C30.8647 25.0001 30.674 25.2442 30.4771 25.4633C30.0587 25.9265 30.0095 26.0892 30.1141 26.7339C30.3602 28.2297 31.3261 30.7208 32.1505 31.9538C32.6673 32.7361 33.3318 33.1993 34.3777 33.506C35.0483 33.7063 36.2972 33.8878 37.1585 33.9066C37.5031 33.9191 37.54 33.9066 37.7307 33.7V33.7ZM30.8524 17.7524C30.8524 17.7398 30.7355 17.6209 30.594 17.4895L30.3294 17.2391L30.5755 17.5083C30.797 17.7524 30.8524 17.8024 30.8524 17.7524V17.7524ZM28.5945 16.6007C28.5145 16.5882 28.3792 16.5882 28.2869 16.6007C28.1884 16.6132 28.2561 16.6258 28.4222 16.6258C28.5945 16.6258 28.6683 16.6132 28.5945 16.6007Z" fill="#1F1F1F"/>
<path d="M55.7386 51.5065L55.1234 51.4752L55.3695 51.3501C55.5049 51.2875 55.7448 51.2311 55.9109 51.2311C56.0709 51.2249 56.2001 51.2061 56.2001 51.1811C56.2001 51.1122 56.7415 51.1185 56.7784 51.1873C56.7969 51.2186 56.9445 51.2249 57.0983 51.2061C57.3198 51.1811 57.3752 51.1936 57.3383 51.2562C57.3075 51.3125 57.326 51.3188 57.4182 51.2937C57.5351 51.2562 58.661 51.4815 58.661 51.5441C58.661 51.5816 56.5015 51.5503 55.7386 51.5065Z" fill="#1F1F1F"/>
<path d="M55.3019 49.8854C55.4372 49.7352 56.0401 49.5412 56.2309 49.5912C56.3108 49.61 56.397 49.6038 56.4154 49.5662C56.4585 49.4974 56.7723 49.4786 56.8276 49.5412C56.8461 49.56 57.0368 49.585 57.2522 49.5975C57.4675 49.61 57.7997 49.6538 57.9843 49.6976L58.3227 49.779L58.015 49.8228C57.4306 49.9167 56.2924 50.0043 55.7448 50.0043C55.2096 50.0043 55.1973 49.9981 55.3019 49.8854Z" fill="#1F1F1F"/>
<path d="M54.6435 49.0468C55.1234 48.421 56.1262 47.9453 57.1536 47.8451L57.5228 47.8138L57.2767 47.9328C57.1413 47.9954 56.7045 48.2457 56.3046 48.4898C55.5848 48.9279 55.2341 49.0781 54.7604 49.1658L54.5143 49.2096L54.6435 49.0468V49.0468Z" fill="#1F1F1F"/>
<path d="M46.9038 42.9444C46.6208 42.7065 46.7992 42.1808 47.1684 42.1808C47.5437 42.1808 47.7282 42.669 47.4514 42.9319C47.2853 43.0883 47.0884 43.0946 46.9038 42.9444Z" fill="#1F1F1F"/>
<path d="M46.4302 40.7413C46.3502 40.6662 46.2948 40.5348 46.2948 40.4346C46.2948 40.2281 46.5224 39.9902 46.7193 39.9902C46.8916 39.9902 47.1561 40.2531 47.1561 40.4284C47.1561 40.6036 46.8916 40.8665 46.707 40.8665C46.627 40.8665 46.504 40.8101 46.4302 40.7413Z" fill="#1F1F1F"/>
<path d="M44.5598 29.7632C43.5324 29.5253 43.0833 29.1748 42.2404 27.9731C42.0558 27.7165 41.7605 27.341 41.5821 27.1469C41.3975 26.9529 41.2499 26.7651 41.2499 26.7213C41.2499 26.6462 41.5021 26.5336 41.6682 26.5336C41.7359 26.5336 41.8405 26.6713 41.9574 26.8966C42.4434 27.8479 43.4524 28.4175 45.0459 28.6303C45.5135 28.6929 46.2825 28.7242 47.3776 28.7242H49.008L48.8111 29.0121C48.5896 29.3438 48.2328 29.5378 47.556 29.6943C46.9716 29.832 45.0459 29.8758 44.5598 29.7632V29.7632Z" fill="#1F1F1F"/>
<path d="M46.8484 27.3097C45.0766 27.1845 43.4462 26.6275 42.7202 25.8889C42.5356 25.7011 42.3388 25.457 42.2772 25.3506L42.1665 25.1566L42.4372 25.2755C43.2555 25.6323 44.6397 25.8388 46.6085 25.8889L48.0666 25.9265L48.1035 26.1518C48.122 26.277 48.1404 26.5962 48.1404 26.8653V27.3472L47.6359 27.3347C47.3529 27.3285 47.0022 27.3159 46.8484 27.3097Z" fill="#1F1F1F"/>
<path d="M48.768 26.5336L48.7864 25.8263L49.3586 25.7074C50.0784 25.5635 50.6444 25.3319 51.7396 24.7436C52.2194 24.4869 52.6316 24.2804 52.6501 24.2804C52.7055 24.2804 52.3671 24.8562 52.041 25.3194C51.7149 25.795 51.0013 26.471 50.5768 26.7151C50.1707 26.9529 49.5924 27.1407 49.1187 27.197L48.7495 27.2408L48.768 26.5336V26.5336Z" fill="#1F1F1F"/>
<path d="M45.5073 24.7499C45.2612 24.4432 45.1259 24.0363 45.1259 23.6107C45.1259 23.2915 45.2735 22.7783 45.3719 22.7783C45.3966 22.7783 45.4765 23.0161 45.5504 23.3041C45.655 23.6921 45.7349 23.8736 45.8703 24.0051C46.0549 24.1866 46.061 24.1866 46.8362 24.1866C47.5499 24.1803 47.6668 24.1678 48.1713 23.9863C48.4789 23.8736 49.1802 23.5732 49.7401 23.3166C50.8598 22.7908 50.9398 22.722 51.0136 22.0961C51.0629 21.6642 50.8906 21.3262 50.2446 20.5689C48.725 18.7851 48.0851 17.8526 47.6176 16.7197C47.2546 15.8372 47.0946 14.7481 47.3161 14.6605C47.4453 14.6105 47.5683 14.7794 47.6483 15.1112C47.9129 16.1814 49.5986 18.6036 51.3274 20.3999C51.7396 20.8318 52.0965 21.2511 52.1211 21.3262C52.1395 21.4076 52.0965 21.6767 52.0165 21.9208C51.9427 22.1712 51.8504 22.5092 51.8135 22.6719C51.7458 22.9661 51.7335 22.9786 51.0567 23.4042C49.3218 24.487 48.1959 24.8813 46.5963 24.9501L45.7042 24.9877L45.5073 24.7499Z" fill="#1F1F1F"/>
<path d="M27.9362 22.5154C27.6409 21.8832 27.5855 20.9069 27.8132 20.2434C27.9547 19.8241 27.9362 19.774 27.6409 19.774C27.4317 19.774 27.3394 19.8115 27.1733 19.9805C26.9703 20.1746 26.9641 20.1746 27.0072 20.0243C27.0933 19.7114 27.3579 19.3296 27.5917 19.1731C27.9054 18.9603 28.2377 18.9228 28.6253 19.048C29.4989 19.3421 30.1141 20.281 30.1141 21.3137C30.1141 21.6141 30.0957 21.7205 30.0403 21.7017C29.9972 21.6892 29.8127 21.395 29.6404 21.0508C29.259 20.3185 29.1482 20.2121 28.7914 20.2121C28.576 20.2121 28.4961 20.2434 28.4038 20.3686C28.2069 20.6189 28.1208 21.1197 28.1208 22.0084C28.1146 22.4653 28.1085 22.8408 28.1023 22.8408C28.0962 22.8408 28.0223 22.6906 27.9362 22.5154V22.5154Z" fill="#1F1F1F"/>
<path d="M41.5883 18.6098C40.6162 18.3657 40.2471 18.0152 40.4501 17.5145C40.5424 17.3017 40.6162 17.2892 41.373 17.4269C42.1358 17.5646 42.7511 17.5521 43.0772 17.3893C43.2248 17.3205 43.3417 17.2266 43.3417 17.1891C43.3417 17.1452 43.2494 16.9575 43.1387 16.7697C42.628 15.8997 42.2589 14.9359 42.1912 14.3287C42.1481 13.8593 42.2281 13.8468 42.4189 14.2849C43.0402 15.7057 43.1387 15.881 43.6432 16.4192C44.1661 16.9888 44.2584 17.1891 44.1784 17.6209C44.123 17.8963 43.7293 18.3031 43.3417 18.4784C43.1264 18.5785 42.911 18.6098 42.3881 18.6223C42.0189 18.6349 41.656 18.6286 41.5883 18.6098V18.6098Z" fill="#1F1F1F"/>
<path d="M51.3582 17.9526C51.0936 17.8713 50.7983 17.5583 50.7491 17.3017C50.6876 16.9512 50.6999 16.9449 51.8688 16.8323C52.5825 16.7634 52.9393 16.6758 52.9393 16.5694C52.9393 16.5319 52.8286 16.2064 52.6932 15.8371C52.3733 14.9671 52.2626 14.504 52.2626 14.0784L52.2687 13.7341L52.847 14.9358C53.1608 15.5993 53.5238 16.3128 53.6469 16.5131C53.8253 16.8135 53.856 16.9136 53.8068 17.0138C53.6407 17.3267 52.9209 17.7523 52.281 17.9213C51.8688 18.034 51.6535 18.0402 51.3582 17.9526V17.9526Z" fill="#1F1F1F"/>
<path d="M36.6726 13.3148C36.4573 13.0081 36.6418 12.1756 37.0479 11.556C37.7739 10.4607 38.9674 9.67835 39.9026 9.68461C40.5855 9.69087 41.2499 10.2917 41.0777 10.7549C41.0284 10.8988 41.01 10.8988 40.1671 10.9113C39.3489 10.9176 39.2935 10.9239 38.912 11.1116C38.1799 11.4684 37.6324 12.0379 37.1156 12.9956C36.9802 13.2459 36.8449 13.4525 36.8202 13.4525C36.7895 13.4525 36.7218 13.3899 36.6726 13.3148V13.3148Z" fill="#1F1F1F"/>
</svg>
