<svg width="80" height="80" viewBox="0 0 80 80" fill="none" xmlns="http://www.w3.org/2000/svg">
<path d="M52.0378 44.7434C47.4675 54.0872 39.4644 60.3739 28.8765 62.4407C27.2531 62.8384 25.5866 63.0329 23.9152 63.0196C17.8214 63.0196 12.2355 60.4806 9.52377 56.3216C5.88276 50.7813 4.6437 39.0356 16.6484 30.3469C16.8921 31.6723 17.3898 33.4903 17.7199 34.5669C15.3633 36.3176 13.4343 38.58 12.0781 41.1837C9.8437 45.5712 10.0925 49.9536 12.7382 54.0059C14.5664 56.738 17.4609 58.3985 21.1832 58.9063C25.8324 59.4948 30.5489 58.6066 34.6656 56.3673C41.1199 52.9751 45.421 48.9227 48.2343 43.3825C47.4388 42.5604 46.968 41.4781 46.9089 40.3356C46.8664 39.1097 47.312 37.917 48.1479 37.0192C48.9838 36.1214 50.1417 35.5919 51.3675 35.547H51.5402C52.7325 35.541 53.8815 35.9936 54.7494 36.8111C55.6173 37.6287 56.1378 38.7486 56.203 39.9392C56.2682 41.1297 55.8733 42.2998 55.0999 43.2073C54.3265 44.1148 53.2338 44.6902 52.048 44.8145L52.0378 44.7434ZM66.5968 34.4856C72.7972 41.5138 72.9648 49.786 70.5679 54.5848C68.3335 58.9673 62.4429 63.3548 54.521 63.3548C50.823 63.2793 47.185 62.4045 43.857 60.7903C45.0199 59.9626 46.6703 58.6372 47.5792 57.8095C50.1457 58.9213 52.9076 59.5116 55.7042 59.5462C60.8332 59.5462 64.7179 57.1493 67.0335 52.7669C68.5214 49.8723 68.6078 46.4802 67.2011 43.0067C65.4751 38.6364 62.4037 34.9284 58.4312 32.4188C53.2194 28.9055 47.0752 27.0325 40.7898 27.0411H39.3019C38.9549 27.8426 38.3905 28.5309 37.6725 29.0281C36.9545 29.5253 36.1117 29.8115 35.2394 29.8544H35.082C33.8755 29.8395 32.7223 29.355 31.8674 28.5036C31.0124 27.6522 30.5231 26.501 30.5033 25.2946C30.4834 24.0882 30.9347 22.9216 31.7612 22.0425C32.5877 21.1635 33.7243 20.6413 34.9296 20.5868H35.0972C35.9372 20.5874 36.7607 20.8195 37.4774 21.2576C38.194 21.6956 38.7761 22.3227 39.1597 23.07H40.4851C51.0476 23.07 60.3203 27.1223 66.5968 34.4856V34.4856ZM24.5753 46.1653C24.4884 45.3221 24.6927 44.4744 25.1542 43.7634C20.523 35.7399 18.0449 25.5684 21.8484 14.9805C24.5753 7.02312 31.441 1.64539 38.8855 1.64539C46.8277 1.64539 55.0999 8.59734 56.0902 21.9934C54.8511 21.5821 53.0433 20.9778 51.9566 20.7544C51.6874 16.3719 47.9855 5.45398 39.2156 5.61648C36.0722 5.70281 31.441 7.1907 29.0593 10.2477C26.1133 13.897 24.3995 18.3859 24.164 23.07C23.6058 29.4927 25.1127 35.9259 28.4652 41.4325C28.6503 41.3649 28.8475 41.3372 29.0441 41.3513H29.2066C30.4349 41.329 31.6217 41.7956 32.5059 42.6485C33.3902 43.5013 33.8994 44.6704 33.9216 45.8987C33.9438 47.127 33.4772 48.3138 32.6244 49.198C31.7716 50.0823 30.6024 50.5915 29.3742 50.6138H29.2066C28.0083 50.6095 26.8579 50.143 25.9951 49.3114C25.1323 48.4798 24.6237 47.3474 24.5753 46.1501V46.1653Z" fill="black"/>
<path d="M25.258 77L22.682 72.968H21.296V77H20.022V67.13H23.27C24.39 67.13 25.23 67.4007 25.79 67.942C26.35 68.474 26.63 69.1833 26.63 70.07C26.63 70.8727 26.406 71.5213 25.958 72.016C25.51 72.5013 24.8613 72.8047 24.012 72.926L26.7 77H25.258ZM21.296 72.044H23.158C24.6047 72.044 25.328 71.4093 25.328 70.14C25.328 68.8707 24.6047 68.236 23.158 68.236H21.296V72.044ZM35.2541 72.73C35.2541 73.0007 35.2354 73.234 35.1981 73.43H29.0521C29.0801 74.3073 29.3274 74.9653 29.7941 75.404C30.2701 75.8427 30.8488 76.062 31.5301 76.062C32.1461 76.062 32.6594 75.908 33.0701 75.6C33.4901 75.2827 33.7468 74.8627 33.8401 74.34H35.1981C35.1048 74.872 34.8948 75.348 34.5681 75.768C34.2508 76.188 33.8354 76.5147 33.3221 76.748C32.8088 76.9813 32.2301 77.098 31.5861 77.098C30.8488 77.098 30.1954 76.9393 29.6261 76.622C29.0568 76.3047 28.6088 75.852 28.2821 75.264C27.9648 74.6667 27.8061 73.9667 27.8061 73.164C27.8061 72.3613 27.9648 71.6613 28.2821 71.064C28.6088 70.4667 29.0568 70.0093 29.6261 69.692C30.1954 69.3747 30.8488 69.216 31.5861 69.216C32.3328 69.216 32.9814 69.3747 33.5321 69.692C34.0921 70.0093 34.5168 70.434 34.8061 70.966C35.1048 71.498 35.2541 72.086 35.2541 72.73ZM33.9661 72.814C33.9941 72.2447 33.9008 71.7687 33.6861 71.386C33.4714 71.0033 33.1774 70.7187 32.8041 70.532C32.4308 70.3453 32.0248 70.252 31.5861 70.252C30.8861 70.252 30.2981 70.4713 29.8221 70.91C29.3461 71.3393 29.0894 71.974 29.0521 72.814H33.9661ZM40.0704 69.216C40.8171 69.216 41.4471 69.4027 41.9604 69.776C42.4831 70.1493 42.8471 70.6487 43.0524 71.274V66.64H44.3264V77H43.0524V75.04C42.8471 75.6653 42.4831 76.1647 41.9604 76.538C41.4471 76.9113 40.8171 77.098 40.0704 77.098C39.3891 77.098 38.7824 76.9393 38.2504 76.622C37.7184 76.3047 37.2984 75.852 36.9904 75.264C36.6918 74.6667 36.5424 73.9667 36.5424 73.164C36.5424 72.3613 36.6918 71.6613 36.9904 71.064C37.2984 70.4667 37.7184 70.0093 38.2504 69.692C38.7824 69.3747 39.3891 69.216 40.0704 69.216ZM40.4344 70.35C39.6504 70.35 39.0204 70.602 38.5444 71.106C38.0778 71.6007 37.8444 72.2867 37.8444 73.164C37.8444 74.0413 38.0778 74.732 38.5444 75.236C39.0204 75.7307 39.6504 75.978 40.4344 75.978C40.9384 75.978 41.3864 75.8613 41.7784 75.628C42.1798 75.3947 42.4924 75.068 42.7164 74.648C42.9404 74.2187 43.0524 73.724 43.0524 73.164C43.0524 72.604 42.9404 72.1093 42.7164 71.68C42.4924 71.2507 42.1798 70.924 41.7784 70.7C41.3864 70.4667 40.9384 70.35 40.4344 70.35ZM53.186 69.314V77H51.912V75.194C51.716 75.8193 51.366 76.3 50.862 76.636C50.3674 76.9627 49.7887 77.126 49.126 77.126C48.2394 77.126 47.5207 76.8413 46.97 76.272C46.4194 75.6933 46.144 74.8673 46.144 73.794V69.314H47.418V73.668C47.418 74.4333 47.614 75.026 48.006 75.446C48.398 75.8567 48.93 76.062 49.602 76.062C50.302 76.062 50.862 75.838 51.282 75.39C51.702 74.9327 51.912 74.27 51.912 73.402V69.314H53.186ZM59.6511 77L57.6491 74.06L55.8431 77H54.4291L56.9491 73.038L54.4151 69.314H55.8711L57.8171 72.17L59.5951 69.314H61.0091L58.5031 73.178L61.1071 77H59.6511Z" fill="black"/>
</svg>
